<?xml version="1.0" encoding="UTF-8"?>
<svg id="Layer_1" xmlns="http://www.w3.org/2000/svg" version="1.1" viewBox="0 0 512 512">
  <!-- Generator: Adobe Illustrator 29.6.1, SVG Export Plug-In . SVG Version: 2.1.1 Build 9)  -->
  <defs>
    <style>
      .st0 {
        fill: #fff;
      }
    </style>
  </defs>
  <circle cx="256" cy="256" r="256"/>
  <path class="st0" d="M324.27,85.33h-136.53c-27.73,0-51.2,23.47-51.2,51.2v273.07c0,6.4,4.27,12.8,8.53,14.93s12.8,2.13,17.07,0l93.87-53.33,93.87,53.33c2.13,2.13,6.4,2.13,8.53,2.13s6.4,0,8.53-2.13c4.27-2.13,8.53-8.53,8.53-14.93V136.53c0-27.73-23.47-51.2-51.2-51.2h0ZM341.33,379.73l-76.8-44.8c-4.27-2.13-12.8-2.13-17.07,0l-76.8,44.8v-243.2c0-8.53,8.53-17.07,17.07-17.07h136.53c8.53,0,17.07,8.53,17.07,17.07v243.2Z"/>
</svg>