<?xml version="1.0" encoding="UTF-8"?><svg id="Layer_1" xmlns="http://www.w3.org/2000/svg" viewBox="0 0 306.92 166.02"><defs><style>.cls-1{fill:#010101;}</style></defs><path class="cls-1" d="M48.72,129.53c-10.41,0-18.48-2.86-24.19-8.57-5.72-5.71-8.57-13.78-8.57-24.19v-40.74H0v-19.86h1.7c4.53,0,8.03-1.19,10.53-3.56,2.49-2.38,3.73-5.83,3.73-10.35v-7.13h22.24v21.05h21.22v19.86h-21.22v39.55c0,3.06.54,5.66,1.61,7.81,1.07,2.15,2.77,3.79,5.09,4.92,2.32,1.13,5.29,1.7,8.91,1.7.79,0,1.72-.06,2.8-.17,1.07-.11,2.12-.23,3.14-.34v19.01c-1.59.23-3.4.45-5.43.68-2.04.23-3.9.34-5.6.34Z"/><path class="cls-1" d="M94.22,130.54c-6.45,0-12.05-1.08-16.81-3.23-4.75-2.15-8.43-5.23-11.03-9.25-2.6-4.02-3.9-8.68-3.9-14.01s1.13-9.65,3.4-13.67c2.26-4.02,5.77-7.38,10.53-10.1,4.75-2.72,10.75-4.64,17.99-5.77l30.22-4.92v16.98l-25.97,4.41c-4.41.79-7.7,2.21-9.85,4.24-2.15,2.04-3.23,4.7-3.23,7.98s1.21,5.69,3.65,7.55c2.43,1.87,5.46,2.8,9.08,2.8,4.64,0,8.74-.99,12.31-2.97,3.56-1.98,6.34-4.72,8.32-8.23,1.98-3.51,2.97-7.36,2.97-11.54v-23.77c0-3.96-1.56-7.27-4.67-9.93-3.11-2.66-7.21-3.99-12.31-3.99-4.75,0-8.97,1.27-12.65,3.82-3.68,2.55-6.37,5.92-8.06,10.1l-18.16-8.83c1.81-4.86,4.67-9.08,8.57-12.65s8.51-6.37,13.84-8.4c5.32-2.04,11.09-3.06,17.32-3.06,7.58,0,14.26,1.39,20.03,4.16,5.77,2.77,10.27,6.62,13.5,11.54,3.23,4.92,4.84,10.67,4.84,17.23v61.45h-21.05v-15.79l4.75-.34c-2.38,3.96-5.21,7.27-8.49,9.93-3.28,2.66-7.02,4.7-11.2,6.11-4.19,1.41-8.83,2.12-13.92,2.12Z"/><path class="cls-1" d="M154.48,128.51V0h22.24v128.51h-22.24Z"/><path class="cls-1" d="M187.07,128.51V0h22.24v128.51h-22.24Z"/><path class="cls-1" d="M230.87,166.02c-2.49,0-4.92-.2-7.3-.59-2.38-.4-4.53-1.05-6.45-1.95v-18.67c1.47.34,3.25.68,5.35,1.02,2.09.34,4.04.51,5.86.51,5.09,0,8.8-1.19,11.12-3.56,2.32-2.38,4.38-5.49,6.2-9.34l6.11-14.26-.34,18.67-40.23-101.69h23.94l28.18,75.03h-8.49l28.01-75.03h24.11l-40.23,101.69c-2.38,6-5.26,11.09-8.66,15.28-3.4,4.19-7.33,7.38-11.8,9.59-4.47,2.21-9.59,3.31-15.36,3.31Z"/></svg>