<?xml version="1.0" encoding="UTF-8"?><svg id="Layer_1" xmlns="http://www.w3.org/2000/svg" viewBox="0 0 530.96 141.93"><defs><style>.cls-1{fill:#010101;}</style></defs><path class="cls-1" d="M261.87,52.84c-.25,1.72-1.72,2.7-3.44,2.21-.49-.25-29.73-6.14-59.95-6.14-2.7,0-5.16.25-7.86.25-15.48,25.06-32.92,58.23-29.97,74.93v-.25c.98,4.42,2.95,7.62,6.39,9.34,2.95,1.96,6.63,2.7,10.81,2.7,26.04,0,65.11-37.83,65.6-38.33,1.23-.98,2.95-.74,4.42.49.74.98.49,2.95-.25,3.69-1.97,1.96-41.03,39.8-70.02,39.8-5.16,0-9.58-.98-13.51-3.44-4.67-2.95-7.62-7.37-8.84-13.02-1.97-13.27,4.18-31.45,14.25-50.37-35.62,35.87-75.92,49.38-99.75,49.38h-2.95c-.98,0-1.72-.25-2.7-.25-10.32-1.23-17.69-4.91-20.15-10.81-1.47-3.68-2.46-9.83,3.69-18.43,7.12-9.34,15.72-12.78,20.39-11.3,2.21.74,3.19,2.46,3.19,4.42,0,4.91-7.86,10.07-21.62,14.5-1.47,2.95-1.97,5.9-.74,8.35,1.72,3.93,7.86,6.88,15.72,7.86,26.04,1.97,78.13-14.74,119.16-68.79-19.41,1.23-37.59,6.39-46.68,17.44-.49.49-1.47.74-2.21.74-.49,0-1.47-.49-2.46-.98-.98-.74-.74-2.46.25-3.69,10.56-12.78,32.68-18.18,55.28-19.16,10.81-17.2,21.37-31.69,25.06-36.36v.25l1.72-2.21c.74-1.23,2.7-1.72,3.93-.74s1.72,2.95.49,4.18c-.25.25-12.28,15.48-24.81,34.64,32.18-.98,63.63,5.4,65.84,5.9,1.23.49,1.96,1.97,1.72,3.19Z"/><path class="cls-1" d="M477.08,97.56c1.23-.98,3.19-.49,4.18.49.98,1.23.49,3.19-.74,4.18-30.96,22.85-64.86,34.64-85.01,34.64-5.9,0-10.81-.98-14-3.19-1.96-1.47-3.19-3.19-3.69-5.41-.98-6.14,3.93-13.02,8.6-19.65,3.19-4.42,6.63-9.58,5.9-12.53,0,.25-.25.49-1.23.25-10.81-3.69-37.1,17.44-46.93,26.53l-1.23.25-1.23-.25-1.47-.49-.49-1.23.25-1.72c0-.25,1.96-4.42,6.39-13.27-27.52,13.51-70.26,22.11-92.87,22.11-5.41,0-9.34-.49-11.79-1.47-7.37-2.95-10.32-9.58-7.86-16.71,4.42-11.55,21.62-23.09,33.41-19.16,1.47.74,2.46,2.21,1.72,3.19-.74,1.47-2.21,2.21-3.44,1.72-8.84-2.21-23.09,7.62-26.53,16.21-1.97,4.42.25,7.62,4.67,9.83,1.72.49,5.41.98,9.83.98,22.85,0,71.49-11.06,97.29-25.3,13.02-25.8,36.61-67.81,54.54-89.18.98-.98,2.95-1.23,3.93-.25.98.98.98,2.95.25,4.18-20.64,25.55-47.17,74.93-58.23,97.04,11.3-9.09,30.46-20.88,42.01-17.94,2.7,1.23,3.93,2.7,4.42,3.93,1.47,4.42-2.21,9.83-6.88,16.21-3.69,5.16-7.62,11.79-7.62,15.72.25.74,1.23,1.72,2.7,2.7,1.47.74,4.67,1.23,9.58,1.23,17.69,0,50.37-10.56,81.81-33.66h-.25Z"/></svg>