<?xml version="1.0" encoding="UTF-8"?>
<svg id="Capa_2" xmlns="http://www.w3.org/2000/svg" version="1.1" viewBox="0 0 600 190.11">
  <!-- Generator: Adobe Illustrator 29.6.1, SVG Export Plug-In . SVG Version: 2.1.1 Build 9)  -->
  <defs>
    <style>
      .st0 {
        display: none;
        fill: #3ee5a1;
      }
    </style>
  </defs>
  <path class="st0" d="M351.64,158.63c45.7.82,91.28,3.5,136.74,7.6-3.84.38-7.68.76-11.52,1.16-15.17,1.58-30.3,2.59-45.27,6.93-1.77.51-1.9,4.05.02,4.11,14.92.44,29.76-1.63,44.7-3.23,15.35-1.64,30.7-3.6,46.03-5.78,3.18-.45,3-6.61-.04-6.91-47.89-4.64-95.94-7.66-144.08-8.92-47.57-1.25-95.36-1.33-143.06,3.05-55.87,5.13-111.58,14.87-167.45,19.99-.42.04-.42.96,0,.94,46.59-2.36,93.1-9.63,139.65-14.34"/>
  <g>
    <path d="M313.11,73.38c-.28,1.98-1.98,3.11-3.96,2.55-.57-.28-34.23-7.07-69.03-7.07-3.11,0-5.94.28-9.05.28-17.82,28.86-37.91,67.05-34.52,86.29v-.28c1.13,5.09,3.4,8.77,7.36,10.75,3.4,2.26,7.64,3.11,12.45,3.11,29.99,0,74.97-43.57,75.54-44.13,1.42-1.13,3.39-.85,5.09.57.85,1.13.57,3.39-.28,4.24-2.26,2.26-47.25,45.83-80.63,45.83-5.94,0-11.03-1.13-15.56-3.96-5.38-3.39-8.77-8.49-10.18-14.99-2.26-15.28,4.81-36.21,16.41-58-41.02,41.31-87.42,56.87-114.86,56.87h-3.4c-1.13,0-1.98-.28-3.11-.28-11.88-1.42-20.37-5.66-23.2-12.45-1.7-4.24-2.83-11.32,4.24-21.22,8.2-10.75,18.11-14.71,23.48-13.01,2.55.85,3.68,2.83,3.68,5.09,0,5.66-9.05,11.6-24.9,16.69-1.7,3.39-2.26,6.79-.85,9.62,1.98,4.53,9.05,7.92,18.11,9.05,29.99,2.26,89.97-16.97,137.21-79.22-22.35,1.42-43.29,7.36-53.75,20.09-.57.57-1.7.85-2.55.85-.57,0-1.7-.57-2.83-1.13-1.13-.85-.85-2.83.28-4.24,12.17-14.71,37.63-20.94,63.66-22.07,12.45-19.8,24.61-36.5,28.86-41.87v.28l1.98-2.55c.85-1.41,3.11-1.98,4.53-.85,1.42,1.13,1.98,3.4.57,4.81-.28.28-14.15,17.82-28.57,39.89,37.06-1.13,73.28,6.22,75.82,6.79,1.41.57,2.26,2.26,1.98,3.68Z"/>
    <path d="M560.94,124.87c1.42-1.13,3.68-.57,4.81.57,1.13,1.41.57,3.68-.85,4.81-35.65,26.31-74.69,39.89-97.89,39.89-6.79,0-12.45-1.13-16.13-3.68-2.26-1.7-3.68-3.68-4.24-6.22-1.13-7.07,4.53-14.99,9.9-22.63,3.68-5.09,7.64-11.03,6.79-14.43,0,.28-.28.57-1.42.28-12.45-4.24-42.72,20.09-54.04,30.55l-1.42.28-1.41-.28-1.7-.57-.57-1.41.28-1.98c0-.28,2.26-5.09,7.36-15.28-31.69,15.56-80.91,25.46-106.94,25.46-6.22,0-10.75-.57-13.58-1.7-8.49-3.39-11.88-11.03-9.05-19.24,5.09-13.3,24.9-26.59,38.48-22.07,1.7.85,2.83,2.55,1.98,3.68-.85,1.7-2.55,2.55-3.96,1.98-10.19-2.55-26.59,8.77-30.55,18.67-2.26,5.09.28,8.77,5.38,11.32,1.98.57,6.22,1.13,11.32,1.13,26.31,0,82.33-12.73,112.03-29.14,14.99-29.71,42.15-78.08,62.81-102.7,1.13-1.13,3.39-1.41,4.53-.28,1.13,1.13,1.13,3.4.28,4.81-23.76,29.42-54.32,86.29-67.05,111.75,13.01-10.47,35.08-24.05,48.38-20.65,3.11,1.41,4.53,3.11,5.09,4.53,1.7,5.09-2.55,11.32-7.92,18.67-4.24,5.94-8.77,13.58-8.77,18.11.28.85,1.42,1.98,3.11,3.11,1.7.85,5.38,1.42,11.03,1.42,20.37,0,58-12.17,94.21-38.76h-.28Z"/>
  </g>
</svg>