<?xml version="1.0" encoding="UTF-8"?><svg id="_ÎÓÈ_1" xmlns="http://www.w3.org/2000/svg" viewBox="0 0 3462.03 2519.51"><defs><style>.cls-1{fill:#303030;}</style></defs><path class="cls-1" d="M3305.88,2519.51H156.16c-86.11,0-156.16-70.05-156.16-156.16V156.14C0,70.05,70.05,0,156.16,0h3149.72c86.11,0,156.16,70.05,156.16,156.14v2207.21c0,86.11-70.05,156.16-156.16,156.16ZM156.16,99.21c-31.4,0-56.94,25.54-56.94,56.93v2207.21c0,31.39,25.54,56.94,56.94,56.94h3149.72c31.4,0,56.94-25.55,56.94-56.94V156.14c0-31.39-25.54-56.93-56.94-56.93H156.16Z"/><path class="cls-1" d="M1602.78,1149.53c-206.94,0-375.29-168.35-375.29-375.29s168.35-375.29,375.29-375.29,375.29,168.35,375.29,375.29-168.35,375.29-375.29,375.29ZM1602.78,498.16c-152.23,0-276.08,123.85-276.08,276.08s123.84,276.08,276.08,276.08,276.08-123.84,276.08-276.08-123.84-276.08-276.08-276.08Z"/><path class="cls-1" d="M2428.84,2513.1c-12.69,0-25.4-4.85-35.07-14.53l-971.2-971.2c-128.71-128.7-338.11-128.68-466.82,0L84.68,2398.43c-19.35,19.38-50.79,19.38-70.15,0-19.38-19.38-19.38-50.77,0-70.15l871.07-871.07c167.36-167.4,439.71-167.4,607.11,0l971.2,971.2c19.38,19.38,19.38,50.77,0,70.15-9.68,9.69-22.38,14.53-35.07,14.53Z"/><path class="cls-1" d="M1843.72,1927.98c-12.69,0-25.4-4.84-35.07-14.53-19.38-19.38-19.38-50.77,0-70.15l719.37-719.37c167.41-167.38,439.75-167.36,607.11,0l304.68,304.68c19.38,19.36,19.38,50.78,0,70.15-19.35,19.38-50.79,19.38-70.14,0l-304.68-304.68c-128.7-128.68-338.1-128.7-466.82,0l-719.37,719.37c-9.68,9.69-22.38,14.53-35.07,14.53Z"/></svg>