<?xml version="1.0" encoding="UTF-8"?><svg id="Layer_1" xmlns="http://www.w3.org/2000/svg" viewBox="0 0 530.96 141.93"><defs><style>.cls-1{fill:#010101;}</style></defs><path class="cls-1" d="M207.83,44.38c.97.24,2.18,1.7,1.94,3.15-.24,1.7-1.94,2.67-3.64,2.18,0,0-.24-.24-.49-.24-5.58-.97-31.06-5.58-57.75-5.58-2.91,0-5.58.24-8.49.24l-2.43,3.88-4.12,6.79c-1.46,2.91-3.64,7.04-5.34,9.71-11.4,19.9-19.9,40.04-17.47,53.14.73,4.37,2.91,7.52,6.07,9.46,2.91,1.7,6.55,2.18,10.68,2.18,23.78,0,57.75-31.06,63.82-36.64.24-.24.97-.73.97-.73.97-.73,2.91-.97,3.88,0h-.24c1.21.97,1.46,2.91.24,4.12l-.73.73c-5.82,5.34-41.25,38.1-68.19,38.1-4.85,0-9.22-.97-13.1-3.4-4.85-2.67-7.76-7.28-8.74-13.1-1.46-9.71,1.94-23.05,8.01-36.88-22.33,20.63-54.6,29.6-77.17,36.16l-9.46,2.67c.49,2.18.97,4.85.97,6.79,0,3.15-.97,6.31-3.15,8.98-3.64,3.88-9.22,5.82-14.07,5.82-1.46,0-2.67-.24-3.64-.48-3.15-.73-5.1-2.43-5.82-5.1-1.21-3.64.73-8.01,5.34-12.86,2.67-2.67,7.28-4.37,14.07-6.55-.73-3.64-1.46-7.77-1.46-10.19,0-6.55,2.67-13.1,13.1-17.96,1.46-.49,2.91,0,3.64,1.46.49,1.46-.24,3.16-1.46,3.64-7.28,3.4-9.95,8.01-9.95,12.86,0,2.67.73,5.1,1.46,8.25,2.67-.73,5.58-1.46,8.74-2.67,27.18-7.76,67.46-20.14,88.81-50.47,3.15-5.82,6.55-12.13,10.19-17.47-18.93,1.21-36.88,6.31-46.35,17.23-.49.49-1.21.73-2.18.73-.73,0-1.46,0-1.94-.49-.97-.73-1.21-2.43-.24-3.88,10.68-12.86,32.27-17.96,54.36-19.17,13.59-20.63,25.48-36.64,26.69-37.85.97-1.21,2.67-1.21,3.64-.24.97.73,1.21,2.18.73,3.4-.24.24-1.46,2.18-1.46,2.18v-.24c-3.64,4.85-12.62,16.99-23.05,32.52,26.69-.49,53.63,3.88,62.12,5.34.73.24,1.21.24,2.43.24l.24.24ZM21.22,122.03c-5.34,1.94-9.22,3.64-11.4,5.58-4.13,3.88-4.61,6.07-4.61,7.04.49.73,1.7,1.46,2.43,1.7h-.24c3.64.73,8.98-.49,12.38-4.12,2.18-2.91,2.43-5.82,1.46-10.19Z"/><path class="cls-1" d="M309.5,92.67c.49,1.46-.24,2.91-1.21,3.64-24.99,9.22-64.55,16.5-87.84,16.5-6.07,7.28-14.32,13.1-21.6,13.1-10.92,0-15.77-7.77-15.77-15.05,0-4.85,2.67-9.71,6.31-13.59.97-3.88,3.88-9.22,7.77-12.86,6.07-5.34,14.56-9.46,22.57-9.46,1.94,0,5.1.73,7.52,1.7,2.67.97,6.31,4.61,4.61,13.59-.97,5.58-3.64,11.65-7.52,17.23,22.81-.97,57.51-6.07,81.78-16.02,1.46-.73,2.67,0,3.4,1.21ZM212.92,112.57c-2.67,0-5.1-.24-6.79-.73-7.28-1.21-12.62-4.37-15.04-8.01-1.46,1.94-2.43,4.85-2.43,7.04,0,4.85,3.15,9.46,10.19,9.46,4.61,0,9.46-3.15,14.07-7.76ZM194.96,100.19c1.46,2.91,5.58,5.1,11.89,6.31,2.67.49,6.31.73,10.43.97,4.85-6.07,8.25-12.86,9.46-18.2.49-2.67.73-6.79-1.7-8.01-7.04-2.91-17.96,1.7-24.02,7.28-1.7,1.46-3.64,3.15-4.37,4.61"/><path class="cls-1" d="M429.85,92.18c.97,1.21.24,3.15-.97,4.12-15.29,9.22-41.98,20.14-62.12,20.14-5.1,0-9.71-.73-13.35-2.18-8.25-3.15-9.95-10.68-10.92-15.77-.97-4.12-1.7-6.31-3.88-6.79-9.46-1.94-32.76,20.14-40.77,28.88-.48.49-1.46.73-2.18.73-.49,0-.73,0-1.21-.24-.73-.49-1.21-2.18-1.21-3.15.24-.49.97-1.94,1.21-2.91,1.94-5.34,6.31-16.74,10.43-22.57.97-1.21,2.67-1.46,3.88-.97.97.97,1.21,2.67.73,3.88-1.94,2.91-4.37,7.77-6.31,11.65,10.43-9.46,26.45-22.81,36.16-20.63,6.07,1.46,7.28,6.79,8.01,11.4.97,4.85,1.7,8.98,8.01,11.41,2.91.97,6.55,1.46,11.16,1.46,17.23,0,42.46-8.25,59.69-19.17,1.21-.73,2.91-.49,3.64.73Z"/><path class="cls-1" d="M526.67,91.94c1.21-.97,3.15-.73,3.88.97v-.24c.97,1.21,0,3.15-.97,3.88-26.69,15.77-56.05,24.02-76.92,24.02-12.86,0-22.57-2.91-27.42-8.01-1.94-1.7-3.64-4.85-3.64-9.22,0-3.64,1.46-8.49,6.07-14.56,7.04-9.22,15.29-12.13,19.9-10.92,1.94.97,3.15,2.18,3.15,4.12-.24,4.85-8.01,10.43-21.35,14.56-1.7,3.64-2.91,8.98,0,12.13,3.64,3.88,12.13,6.31,23.54,6.31,19.17,0,46.83-6.79,74.01-23.05h-.24Z"/></svg>