<?xml version="1.0" encoding="UTF-8"?><svg id="Layer_1" xmlns="http://www.w3.org/2000/svg" viewBox="0 0 260.53 103.36"><path d="M56.38,63.31c-5.98,13.73-22.13,40.05-39.08,40.05-22.77,0-19.7-22.45-9.85-51.84H1.47l4.85-14.37h6.3l8.08-21.8h19.38c-3.39,8.08-6.3,15.34-8.72,21.8h12.92l-5.01,14.37h-13.41c-10.01,27.94-9.04,33.92-1.94,33.92,5.81,0,15.34-12.11,23.1-29.23l9.37,7.11Z"/><path d="M127.44,63.31c-5.98,13.73-22.13,40.05-39.08,40.05-7.27,0-12.44-4.85-13.57-10.82-4.04,6.3-10.01,10.82-18.25,10.82-11.14,0-18.09-8.72-18.09-23.58,0-21.48,15.5-44.25,33.27-44.25,6.3,0,12.44,3.71,14.86,8.08l2.26-6.46h19.06c-13.73,36.66-18.57,48.29-12.92,48.29s15.34-12.11,23.1-29.23l9.37,7.11ZM82.55,56.37c-2.42-2.42-5.17-4.04-8.56-4.04-9.37,0-15.83,14.54-15.83,25.36,0,4.52,1.78,7.91,5.98,7.91,5.81,0,12.11-9.04,18.41-29.23Z"/><path d="M163.14,63.31c-5.98,13.73-22.13,40.05-39.08,40.05s-18.57-12.76-9.04-42.48c5.01-15.5,14.05-39.57,21.97-60.89h19.7c-10.17,26.16-18.9,50.55-23.42,63.96-5.81,17.12-6.62,21.48-2.58,21.48,5.81,0,15.34-12.11,23.1-29.23l9.37,7.11Z"/><path d="M198.83,63.31c-5.98,13.73-22.13,40.05-39.08,40.05s-18.57-12.76-9.04-42.48c5.01-15.5,14.05-39.57,21.97-60.89h19.7c-10.17,26.16-18.9,50.55-23.42,63.96-5.81,17.12-6.62,21.48-2.58,21.48,5.81,0,15.34-12.11,23.1-29.23l9.37,7.11Z"/><path d="M260.53,63.31c-10.5,19.87-19.22,40.05-50.07,40.05-15.67,0-29.23-8.4-29.23-26.33,0-21,14.37-41.51,36.5-41.51,12.92,0,20.35,9.53,20.35,19.87,0,19.54-22.45,27.46-37.47,24.06,1.29,5.33,5.65,8.4,13.89,8.4,15.34,0,23.9-6.62,36.18-31.66l9.85,7.11ZM200.93,67.99c8.88.32,19.54-4.52,19.87-11.95.16-3.55-1.62-5.33-4.52-5.33-7.11,0-13.24,7.59-15.34,17.28Z"/><rect x="197.25" y="19.48" width="38.33" height="8.44"/></svg>