<?xml version="1.0" encoding="UTF-8"?><svg id="Layer_1" xmlns="http://www.w3.org/2000/svg" viewBox="0 0 384.51 89.83"><defs><style>.cls-1{fill:#070707;}.cls-2{fill:#010101;}</style></defs><path class="cls-1" d="M244.81,70.08c-5.63,0-10-1.55-13.09-4.64-3.09-3.09-4.64-7.45-4.64-13.09v-22.04h-8.63v-10.75h.92c2.45,0,4.35-.64,5.69-1.93,1.35-1.29,2.02-3.15,2.02-5.6v-3.86h12.03v11.39h11.48v10.75h-11.48v21.4c0,1.65.29,3.06.87,4.22.58,1.16,1.5,2.05,2.76,2.66,1.25.61,2.86.92,4.82.92.43,0,.93-.03,1.52-.09.58-.06,1.15-.12,1.7-.18v10.29c-.86.12-1.84.24-2.94.37-1.1.12-2.11.18-3.03.18Z"/><path class="cls-1" d="M269.42,70.63c-3.49,0-6.52-.58-9.09-1.75-2.57-1.16-4.56-2.83-5.97-5.01-1.41-2.17-2.11-4.7-2.11-7.58s.61-5.22,1.84-7.39c1.22-2.17,3.12-4,5.7-5.46,2.57-1.47,5.82-2.51,9.74-3.12l16.35-2.66v9.19l-14.05,2.39c-2.39.43-4.17,1.19-5.33,2.3-1.16,1.1-1.75,2.54-1.75,4.32s.66,3.08,1.97,4.09c1.32,1.01,2.95,1.51,4.91,1.51,2.51,0,4.73-.54,6.66-1.61,1.93-1.07,3.43-2.56,4.5-4.45,1.07-1.9,1.61-3.98,1.61-6.25v-12.86c0-2.14-.84-3.93-2.53-5.37-1.68-1.44-3.9-2.16-6.66-2.16-2.57,0-4.85.69-6.84,2.07-1.99,1.38-3.44,3.2-4.36,5.46l-9.83-4.78c.98-2.63,2.53-4.91,4.64-6.84,2.11-1.93,4.61-3.44,7.49-4.55,2.88-1.1,6-1.65,9.37-1.65,4.1,0,7.72.75,10.84,2.25,3.12,1.5,5.56,3.58,7.3,6.25,1.75,2.66,2.62,5.77,2.62,9.32v33.25h-11.39v-8.54l2.57-.18c-1.29,2.14-2.82,3.94-4.59,5.37-1.78,1.44-3.8,2.54-6.06,3.31-2.27.77-4.78,1.15-7.53,1.15Z"/><path class="cls-1" d="M302.03,69.53V0h12.03v69.53h-12.03Z"/><path class="cls-1" d="M319.67,69.53V0h12.03v69.53h-12.03Z"/><path class="cls-1" d="M343.36,89.83c-1.35,0-2.66-.11-3.95-.32-1.29-.21-2.45-.57-3.49-1.06v-10.1c.79.18,1.76.37,2.89.55,1.13.18,2.19.28,3.17.28,2.76,0,4.76-.64,6.02-1.93,1.25-1.29,2.37-2.97,3.35-5.05l3.31-7.72-.18,10.1-21.77-55.02h12.95l15.25,40.6h-4.59l15.16-40.6h13.04l-21.77,55.02c-1.29,3.25-2.85,6-4.68,8.27-1.84,2.26-3.97,4-6.38,5.19-2.42,1.19-5.19,1.79-8.31,1.79Z"/><path class="cls-2" d="M1.13,22.38v-9.66H0v-.88h3.25v.88h-1.04v9.66h-1.08Z"/><path class="cls-2" d="M3.81,22.38v-10.67h1.08v2.61c.08-.27.25-.51.52-.72.26-.21.57-.31.93-.31.42,0,.76.15,1.01.46.25.31.38.78.38,1.43v7.21h-1.08v-7.12c0-.4-.07-.66-.22-.81-.14-.14-.33-.21-.56-.21-.16,0-.32.04-.47.11s-.27.19-.36.35c-.09.16-.14.39-.14.67v7.01h-1.08Z"/><path class="cls-2" d="M10.72,22.49c-.42,0-.75-.08-1.01-.23-.25-.15-.44-.37-.57-.65s-.21-.61-.25-1-.06-.81-.06-1.28v-3.1c0-.42.02-.81.07-1.17s.14-.67.28-.93c.14-.27.33-.47.58-.62s.58-.22.98-.22.74.07.97.22.41.36.53.63c.12.27.19.59.22.96.03.37.05.77.05,1.2v1.61h-2.61v1.8c0,.62.04,1.09.13,1.4.08.31.31.47.67.47.24,0,.41-.07.51-.22.1-.15.16-.36.19-.63s.04-.6.04-.98v-.7h1.05v.34c0,.46-.01.88-.04,1.26-.03.38-.1.71-.21.99-.11.28-.29.49-.53.64-.24.15-.58.22-1.01.22ZM9.92,17.11h1.53v-1.14c0-.38-.01-.71-.03-.97-.02-.26-.08-.46-.18-.6-.1-.14-.26-.2-.49-.2-.25,0-.43.08-.55.23-.12.15-.2.36-.23.63s-.05.59-.05.95v1.1Z"/><path class="cls-2" d="M13.57,22.38v-8.98h1.08v.92c.08-.27.25-.51.52-.72.26-.21.58-.31.93-.31.42,0,.75.15,1.01.46.25.31.38.78.38,1.43v7.21h-1.08v-7.23c0-.34-.08-.59-.23-.73-.16-.14-.35-.22-.58-.22-.16,0-.32.03-.46.1-.14.07-.26.17-.35.32-.09.15-.13.35-.13.6v7.16h-1.08Z"/><path class="cls-2" d="M23.39,22.43c-.38,0-.67-.04-.87-.13s-.32-.23-.39-.43c-.07-.2-.1-.47-.1-.8v-6.81h-.85v-.81h.85v-1.6h1.08v1.6h1.01v.81h-1.01v6.77c0,.16.02.27.06.35.04.08.13.13.27.15.14.02.37.04.68.04v.88h-.74Z"/><path class="cls-2" d="M24.86,22.38v-10.67h1.08v2.61c.08-.27.25-.51.52-.72.26-.21.57-.31.93-.31.42,0,.76.15,1.01.46.25.31.38.78.38,1.43v7.21h-1.08v-7.12c0-.4-.07-.66-.22-.81-.14-.14-.33-.21-.56-.21-.16,0-.32.04-.47.11s-.27.19-.36.35c-.09.16-.14.39-.14.67v7.01h-1.08Z"/><path class="cls-2" d="M31.77,22.49c-.42,0-.75-.08-1.01-.23-.25-.15-.44-.37-.57-.65s-.21-.61-.25-1-.06-.81-.06-1.28v-3.1c0-.42.02-.81.07-1.17s.14-.67.28-.93c.14-.27.33-.47.58-.62s.58-.22.98-.22.74.07.97.22.41.36.53.63c.12.27.19.59.22.96.03.37.05.77.05,1.2v1.61h-2.61v1.8c0,.62.04,1.09.13,1.4.08.31.31.47.67.47.24,0,.41-.07.51-.22.1-.15.16-.36.19-.63s.04-.6.04-.98v-.7h1.05v.34c0,.46-.01.88-.04,1.26-.03.38-.1.71-.21.99-.11.28-.29.49-.53.64-.24.15-.58.22-1.01.22ZM30.97,17.11h1.53v-1.14c0-.38-.01-.71-.03-.97-.02-.26-.08-.46-.18-.6-.1-.14-.26-.2-.49-.2-.25,0-.43.08-.55.23-.12.15-.2.36-.23.63s-.05.59-.05.95v1.1Z"/><path class="cls-2" d="M34.42,23.85v-.86h.38c.17,0,.33,0,.46-.02.14-.01.22-.04.25-.09.06-.06.08-.17.07-.31,0-.14-.03-.3-.06-.47l-1.48-8.71h1.06l.68,4.71.27,2.44h.1l.25-2.44.61-4.71h1.05l-1.46,9.07c-.05.34-.11.61-.18.81-.07.2-.18.35-.33.43-.15.09-.37.13-.67.13h-1Z"/><path class="cls-2" d="M43.37,22.43c-.38,0-.67-.04-.87-.13s-.32-.23-.39-.43c-.07-.2-.1-.47-.1-.8v-6.81h-.85v-.81h.85v-1.6h1.08v1.6h1.01v.81h-1.01v6.77c0,.16.02.27.06.35.04.08.13.13.27.15.14.02.37.04.68.04v.88h-.74Z"/><path class="cls-2" d="M44.84,22.38v-10.67h1.08v2.61c.08-.27.25-.51.52-.72.26-.21.57-.31.93-.31.42,0,.76.15,1.01.46.25.31.38.78.38,1.43v7.21h-1.08v-7.12c0-.4-.07-.66-.22-.81-.14-.14-.33-.21-.56-.21-.16,0-.32.04-.47.11s-.27.19-.36.35c-.09.16-.14.39-.14.67v7.01h-1.08Z"/><path class="cls-2" d="M51.32,22.45c-.51,0-.89-.21-1.13-.62s-.36-.99-.37-1.74v-1c0-.36.07-.66.2-.91.14-.25.33-.45.57-.63s.53-.33.86-.47c.33-.14.68-.29,1.07-.45v-.66c0-.42-.01-.75-.04-1.02s-.09-.45-.19-.58c-.1-.12-.27-.19-.5-.19s-.4.06-.51.18c-.11.12-.18.32-.22.58-.03.27-.05.61-.05,1.04v.27h-1.08v-.25c0-.38.02-.73.06-1.06.04-.33.12-.62.24-.87.12-.25.31-.45.56-.6.25-.15.59-.22,1.01-.22s.74.07.98.2c.24.13.42.33.54.6.12.26.19.59.23.97.04.38.05.83.05,1.33v6h-1.08v-.73c-.03.1-.1.21-.19.34-.1.12-.23.23-.4.33-.17.09-.37.14-.61.14ZM51.59,21.57c.23,0,.43-.07.6-.2.17-.14.28-.27.34-.4v-3.56c-.34.15-.62.28-.83.39-.21.11-.37.23-.49.36s-.19.27-.23.45-.06.39-.06.66v.78c0,.55.04.94.13,1.18.09.24.27.35.54.35Z"/><path class="cls-2" d="M56.36,22.43c-.38,0-.67-.04-.87-.13s-.32-.23-.39-.43c-.07-.2-.1-.47-.1-.8v-6.81h-.85v-.81h.85v-1.6h1.08v1.6h1.01v.81h-1.01v6.77c0,.16.02.27.06.35.04.08.13.13.27.15.14.02.37.04.68.04v.88h-.74Z"/><path class="cls-2" d="M61.24,22.38v-7.83h-.8v-.8h.8v-.43c0-.52.1-.93.31-1.21.21-.28.55-.43,1.03-.43.22,0,.42.02.58.05.17.04.25.06.27.06v.8c-.17-.03-.32-.04-.45-.04-.3,0-.48.06-.55.19-.07.12-.11.29-.11.49v.52h1.11v.8h-1.11v7.83h-1.08Z"/><path class="cls-2" d="M65.79,22.49c-.42,0-.75-.08-1.01-.23-.25-.15-.44-.37-.57-.65s-.21-.61-.25-1-.06-.81-.06-1.28v-3.1c0-.42.02-.81.07-1.17s.14-.67.28-.93c.14-.27.33-.47.58-.62s.58-.22.98-.22.74.07.97.22.41.36.53.63c.12.27.19.59.22.96.03.37.05.77.05,1.2v1.61h-2.61v1.8c0,.62.04,1.09.13,1.4.08.31.31.47.67.47.24,0,.41-.07.51-.22.1-.15.16-.36.19-.63s.04-.6.04-.98v-.7h1.05v.34c0,.46-.01.88-.04,1.26-.03.38-.1.71-.21.99-.11.28-.29.49-.53.64-.24.15-.58.22-1.01.22ZM64.99,17.11h1.53v-1.14c0-.38-.01-.71-.03-.97-.02-.26-.08-.46-.18-.6-.1-.14-.26-.2-.49-.2-.25,0-.43.08-.55.23-.12.15-.2.36-.23.63s-.05.59-.05.95v1.1Z"/><path class="cls-2" d="M69.94,22.45c-.51,0-.89-.21-1.13-.62s-.36-.99-.37-1.74v-1c0-.36.07-.66.2-.91.14-.25.33-.45.57-.63s.53-.33.86-.47c.33-.14.68-.29,1.07-.45v-.66c0-.42-.01-.75-.04-1.02s-.09-.45-.19-.58c-.1-.12-.27-.19-.5-.19s-.4.06-.51.18c-.11.12-.18.32-.22.58-.03.27-.05.61-.05,1.04v.27h-1.08v-.25c0-.38.02-.73.06-1.06.04-.33.12-.62.24-.87.12-.25.31-.45.56-.6.25-.15.59-.22,1.01-.22s.74.07.98.2c.24.13.42.33.54.6.12.26.19.59.23.97.04.38.05.83.05,1.33v6h-1.08v-.73c-.03.1-.1.21-.19.34-.1.12-.23.23-.4.33-.17.09-.37.14-.61.14ZM70.2,21.57c.23,0,.43-.07.6-.2.17-.14.28-.27.34-.4v-3.56c-.34.15-.62.28-.83.39-.21.11-.37.23-.49.36s-.19.27-.23.45-.06.39-.06.66v.78c0,.55.04.94.13,1.18.09.24.27.35.54.35Z"/><path class="cls-2" d="M73.41,22.38v-8.98h1.08v1c.1-.35.28-.62.54-.81s.59-.29.99-.29c0,0,.01.05.02.14,0,.09,0,.2,0,.32v.46c-.19,0-.38.02-.57.07-.19.05-.36.13-.52.25s-.32.28-.46.49v7.37h-1.08Z"/><path class="cls-2" d="M78.37,22.49c-.42,0-.75-.08-1.01-.23-.25-.15-.44-.37-.57-.65s-.21-.61-.25-1-.06-.81-.06-1.28v-3.1c0-.42.02-.81.07-1.17s.14-.67.28-.93c.14-.27.33-.47.58-.62s.58-.22.98-.22.74.07.97.22.41.36.53.63c.12.27.19.59.22.96.03.37.05.77.05,1.2v1.61h-2.61v1.8c0,.62.04,1.09.13,1.4.08.31.31.47.67.47.24,0,.41-.07.51-.22.1-.15.16-.36.19-.63s.04-.6.04-.98v-.7h1.05v.34c0,.46-.01.88-.04,1.26-.03.38-.1.71-.21.99-.11.28-.29.49-.53.64-.24.15-.58.22-1.01.22ZM77.58,17.11h1.53v-1.14c0-.38-.01-.71-.03-.97-.02-.26-.08-.46-.18-.6-.1-.14-.26-.2-.49-.2-.25,0-.43.08-.55.23-.12.15-.2.36-.23.63s-.05.59-.05.95v1.1Z"/><path class="cls-2" d="M82.55,22.45c-.43,0-.75-.13-.96-.39-.21-.26-.35-.61-.42-1.05s-.1-.95-.1-1.51v-3.29c0-.56.04-1.05.13-1.49.09-.44.26-.79.5-1.05.25-.26.6-.38,1.05-.38.22,0,.43.07.6.21.18.14.31.31.4.51v-2.3h1.08v10.67h-1.08v-.72c-.12.29-.29.5-.51.62s-.46.18-.7.18ZM82.91,21.56c.19,0,.35-.04.48-.13.13-.09.23-.26.29-.52.07-.26.1-.66.1-1.18v-3.61c0-.65-.05-1.13-.15-1.44-.1-.31-.33-.47-.68-.47-.32,0-.53.16-.63.46-.1.31-.16.8-.16,1.48v3.59c0,.36.02.68.05.95.03.27.1.48.21.63.11.15.27.22.49.22Z"/><path class="cls-2" d="M90.77,22.43c-.38,0-.67-.04-.87-.13s-.32-.23-.39-.43c-.07-.2-.1-.47-.1-.8v-6.81h-.85v-.81h.85v-1.6h1.08v1.6h1.01v.81h-1.01v6.77c0,.16.02.27.06.35.04.08.13.13.27.15.14.02.37.04.68.04v.88h-.74Z"/><path class="cls-2" d="M92.25,22.38v-10.67h1.08v2.61c.08-.27.25-.51.52-.72.26-.21.57-.31.93-.31.42,0,.76.15,1.01.46.25.31.38.78.38,1.43v7.21h-1.08v-7.12c0-.4-.07-.66-.22-.81-.14-.14-.33-.21-.56-.21-.16,0-.32.04-.47.11s-.27.19-.36.35c-.09.16-.14.39-.14.67v7.01h-1.08Z"/><path class="cls-2" d="M99.15,22.49c-.42,0-.75-.08-1.01-.23-.25-.15-.44-.37-.57-.65s-.21-.61-.25-1-.06-.81-.06-1.28v-3.1c0-.42.02-.81.07-1.17s.14-.67.28-.93c.14-.27.33-.47.58-.62s.58-.22.98-.22.74.07.97.22.41.36.53.63c.12.27.19.59.22.96.03.37.05.77.05,1.2v1.61h-2.61v1.8c0,.62.04,1.09.13,1.4.08.31.31.47.67.47.24,0,.41-.07.51-.22.1-.15.16-.36.19-.63s.04-.6.04-.98v-.7h1.05v.34c0,.46-.01.88-.04,1.26-.03.38-.1.71-.21.99-.11.28-.29.49-.53.64-.24.15-.58.22-1.01.22ZM98.36,17.11h1.53v-1.14c0-.38-.01-.71-.03-.97-.02-.26-.08-.46-.18-.6-.1-.14-.26-.2-.49-.2-.25,0-.43.08-.55.23-.12.15-.2.36-.23.63s-.05.59-.05.95v1.1Z"/><path class="cls-2" d="M105.08,22.38v-10.54h1.08v9.66h1.91v.88h-2.99Z"/><path class="cls-2" d="M110.35,22.49c-.42,0-.75-.08-1.01-.22-.25-.15-.44-.36-.58-.64-.13-.28-.22-.61-.26-.99-.04-.38-.06-.81-.06-1.27v-3.11c0-.56.05-1.07.14-1.52s.27-.8.55-1.06c.27-.26.68-.39,1.22-.39.41,0,.73.07.98.22s.44.36.57.63c.13.27.22.58.26.94s.07.75.07,1.17v3.11c0,.46-.02.88-.06,1.26-.04.38-.12.71-.24.99-.12.28-.31.5-.56.65-.25.15-.59.23-1.01.23ZM110.35,21.57c.23,0,.4-.08.52-.24s.19-.38.22-.66c.04-.28.06-.61.06-.99v-3.66c0-.36-.02-.68-.06-.95-.04-.27-.11-.48-.22-.64s-.28-.23-.52-.23-.42.08-.54.23-.19.37-.23.64c-.04.27-.05.59-.05.95v3.66c0,.38.02.71.05.99.04.28.11.5.23.66.12.16.3.24.54.24Z"/><path class="cls-2" d="M113.41,22.38v-8.98h1.08v1c.1-.35.28-.62.54-.81s.59-.29.99-.29c0,0,.01.05.02.14,0,.09,0,.2,0,.32v.46c-.19,0-.38.02-.57.07-.19.05-.36.13-.52.25s-.32.28-.46.49v7.37h-1.08Z"/><path class="cls-2" d="M117.98,22.45c-.43,0-.75-.13-.96-.39-.21-.26-.35-.61-.42-1.05s-.1-.95-.1-1.51v-3.29c0-.56.04-1.05.13-1.49.09-.44.26-.79.5-1.05.25-.26.6-.38,1.05-.38.22,0,.43.07.6.21.18.14.31.31.4.51v-2.3h1.08v10.67h-1.08v-.72c-.12.29-.29.5-.51.62s-.46.18-.7.18ZM118.33,21.56c.19,0,.35-.04.48-.13.13-.09.23-.26.29-.52.07-.26.1-.66.1-1.18v-3.61c0-.65-.05-1.13-.15-1.44-.1-.31-.33-.47-.68-.47-.32,0-.53.16-.63.46-.1.31-.16.8-.16,1.48v3.59c0,.36.02.68.05.95.03.27.1.48.21.63.11.15.27.22.49.22Z"/><path class="cls-2" d="M126.21,22.5c-.63,0-1.11-.2-1.42-.61s-.47-1.06-.47-1.98v-.72h1.06v.65c0,.55.06.97.19,1.27.12.29.32.44.58.44s.47-.09.59-.26c.12-.17.18-.49.18-.94,0-.22-.02-.43-.08-.64-.05-.21-.14-.42-.26-.63-.13-.21-.3-.43-.54-.65l-.65-.61c-.39-.38-.68-.77-.86-1.17s-.28-.84-.28-1.29c0-.7.16-1.22.49-1.56s.77-.5,1.33-.5c.37,0,.69.09.96.26.27.17.47.46.6.87.14.41.21.96.21,1.67v.49h-1.02v-.67c0-.56-.06-.98-.17-1.25s-.3-.42-.57-.42-.46.1-.58.29c-.12.19-.18.48-.19.87,0,.19.02.37.07.56.05.18.13.37.26.56.12.19.3.39.52.6l.63.61c.42.4.73.82.93,1.25.19.43.29.9.29,1.38,0,.65-.14,1.17-.43,1.55s-.74.58-1.36.58Z"/><path class="cls-2" d="M128.8,24v-10.6h1.08v.72c.12-.3.3-.5.52-.62.23-.12.46-.18.7-.18.42,0,.74.13.95.38.21.26.35.6.42,1.04.07.44.1.94.1,1.51v3.23c0,.56-.04,1.07-.13,1.52-.09.45-.25.81-.49,1.08-.24.26-.6.4-1.07.4-.22,0-.42-.07-.6-.22s-.32-.32-.4-.51v2.24h-1.08ZM130.73,21.56c.31,0,.51-.16.61-.46.1-.31.15-.8.15-1.49v-3.6c0-.36-.01-.67-.04-.94-.03-.27-.1-.48-.2-.63-.1-.15-.27-.22-.49-.22-.18,0-.34.04-.47.12-.13.08-.23.25-.31.51-.07.26-.11.65-.11,1.17v3.64c0,.65.05,1.13.16,1.44.11.31.34.47.69.47Z"/><path class="cls-2" d="M135.05,22.45c-.51,0-.89-.21-1.13-.62s-.36-.99-.37-1.74v-1c0-.36.07-.66.2-.91.14-.25.33-.45.57-.63s.53-.33.86-.47c.33-.14.68-.29,1.07-.45v-.66c0-.42-.01-.75-.04-1.02s-.09-.45-.19-.58c-.1-.12-.27-.19-.5-.19s-.4.06-.51.18c-.11.12-.18.32-.22.58-.03.27-.05.61-.05,1.04v.27h-1.08v-.25c0-.38.02-.73.06-1.06.04-.33.12-.62.24-.87.12-.25.31-.45.56-.6.25-.15.59-.22,1.01-.22s.74.07.98.2c.24.13.42.33.54.6.12.26.19.59.23.97.04.38.05.83.05,1.33v6h-1.08v-.73c-.03.1-.1.21-.19.34-.1.12-.23.23-.4.33-.17.09-.37.14-.61.14ZM135.31,21.57c.23,0,.43-.07.6-.2.17-.14.28-.27.34-.4v-3.56c-.34.15-.62.28-.83.39-.21.11-.37.23-.49.36s-.19.27-.23.45-.06.39-.06.66v.78c0,.55.04.94.13,1.18.09.24.27.35.54.35Z"/><path class="cls-2" d="M138.52,22.38v-10.67h1.08v6.03l1.86-4.34h1.08l-1.96,4.44,2.07,4.54h-1.12l-1.93-4.4v4.4h-1.08Z"/><path class="cls-2" d="M144.94,22.49c-.42,0-.75-.08-1.01-.23-.25-.15-.44-.37-.57-.65s-.21-.61-.25-1-.06-.81-.06-1.28v-3.1c0-.42.02-.81.07-1.17s.14-.67.28-.93c.14-.27.33-.47.58-.62s.58-.22.98-.22.74.07.97.22.41.36.53.63c.12.27.19.59.22.96.03.37.05.77.05,1.2v1.61h-2.61v1.8c0,.62.04,1.09.13,1.4.08.31.31.47.67.47.24,0,.41-.07.51-.22.1-.15.16-.36.19-.63s.04-.6.04-.98v-.7h1.05v.34c0,.46-.01.88-.04,1.26-.03.38-.1.71-.21.99-.11.28-.29.49-.53.64-.24.15-.58.22-1.01.22ZM144.15,17.11h1.53v-1.14c0-.38-.01-.71-.03-.97-.02-.26-.08-.46-.18-.6-.1-.14-.26-.2-.49-.2-.25,0-.43.08-.55.23-.12.15-.2.36-.23.63s-.05.59-.05.95v1.1Z"/><path class="cls-2" d="M152.61,22.49c-.42,0-.75-.08-1.01-.22-.25-.15-.44-.36-.58-.64-.13-.28-.22-.61-.26-.99-.04-.38-.06-.81-.06-1.27v-3.11c0-.56.05-1.07.14-1.52s.27-.8.55-1.06c.27-.26.68-.39,1.22-.39.41,0,.73.07.98.22s.44.36.57.63c.13.27.22.58.26.94s.07.75.07,1.17v3.11c0,.46-.02.88-.06,1.26-.04.38-.12.71-.24.99-.12.28-.31.5-.56.65-.25.15-.59.23-1.01.23ZM152.61,21.57c.23,0,.4-.08.52-.24s.19-.38.22-.66c.04-.28.06-.61.06-.99v-3.66c0-.36-.02-.68-.06-.95-.04-.27-.11-.48-.22-.64s-.28-.23-.52-.23-.42.08-.54.23-.19.37-.23.64c-.04.27-.05.59-.05.95v3.66c0,.38.02.71.05.99.04.28.11.5.23.66.12.16.3.24.54.24Z"/><path class="cls-2" d="M156,22.38v-7.83h-.8v-.8h.8v-.43c0-.52.1-.93.31-1.21.21-.28.55-.43,1.03-.43.22,0,.42.02.58.05.17.04.25.06.27.06v.8c-.17-.03-.32-.04-.45-.04-.3,0-.48.06-.55.19-.07.12-.11.29-.11.49v.52h1.11v.8h-1.11v7.83h-1.08Z"/><path class="cls-2" d="M160.53,22.43c-.38,0-.67-.04-.87-.13s-.32-.23-.39-.43c-.07-.2-.1-.47-.1-.8v-6.81h-.85v-.81h.85v-1.6h1.08v1.6h1.01v.81h-1.01v6.77c0,.16.02.27.06.35.04.08.13.13.27.15.14.02.37.04.68.04v.88h-.74Z"/><path class="cls-2" d="M163.72,22.49c-.42,0-.75-.08-1.01-.23-.25-.15-.44-.37-.57-.65s-.21-.61-.25-1-.06-.81-.06-1.28v-3.1c0-.42.02-.81.07-1.17s.14-.67.28-.93c.14-.27.33-.47.58-.62.25-.15.58-.22.98-.22s.74.07.97.22c.24.15.41.36.53.63.12.27.19.59.22.96.03.37.05.77.05,1.2v1.61h-2.61v1.8c0,.62.04,1.09.12,1.4.08.31.31.47.67.47.24,0,.41-.07.51-.22.1-.15.16-.36.19-.63.02-.27.04-.6.04-.98v-.7h1.05v.34c0,.46-.01.88-.04,1.26-.03.38-.1.71-.21.99-.11.28-.29.49-.53.64-.24.15-.58.22-1.01.22ZM162.92,17.11h1.53v-1.14c0-.38-.01-.71-.03-.97-.02-.26-.08-.46-.18-.6s-.26-.2-.49-.2c-.25,0-.43.08-.55.23s-.2.36-.23.63-.05.59-.05.95v1.1Z"/><path class="cls-2" d="M166.57,22.38v-8.98h1.08v.92c.08-.27.25-.51.52-.72.26-.21.58-.31.93-.31.42,0,.75.15,1.01.46.25.31.38.78.38,1.43v7.21h-1.08v-7.23c0-.34-.08-.59-.23-.73-.16-.14-.35-.22-.58-.22-.16,0-.32.03-.46.1s-.26.17-.35.32c-.09.15-.13.35-.13.6v7.16h-1.08Z"/><path class="cls-2" d="M176.56,22.49c-.42,0-.75-.08-1.01-.22-.25-.15-.44-.36-.58-.64-.13-.28-.22-.61-.26-.99-.04-.38-.06-.81-.06-1.27v-3.11c0-.56.05-1.07.14-1.52s.27-.8.55-1.06c.27-.26.68-.39,1.22-.39.41,0,.73.07.98.22.25.15.44.36.57.63.13.27.22.58.26.94s.07.75.07,1.17v3.11c0,.46-.02.88-.06,1.26-.04.38-.12.71-.24.99s-.31.5-.56.65c-.25.15-.59.23-1.01.23ZM176.56,21.57c.23,0,.4-.08.51-.24.11-.16.19-.38.22-.66.04-.28.06-.61.06-.99v-3.66c0-.36-.02-.68-.06-.95-.04-.27-.11-.48-.22-.64-.11-.15-.28-.23-.51-.23-.24,0-.42.08-.54.23-.12.15-.19.37-.23.64-.04.27-.05.59-.05.95v3.66c0,.38.02.71.05.99.04.28.11.5.23.66s.3.24.54.24Z"/><path class="cls-2" d="M179.61,22.38v-8.98h1.08v.92c.08-.27.25-.51.52-.72.26-.21.58-.31.93-.31.42,0,.75.15,1.01.46.25.31.38.78.38,1.43v7.21h-1.08v-7.23c0-.34-.08-.59-.23-.73-.16-.14-.35-.22-.58-.22-.16,0-.32.03-.46.1s-.26.17-.35.32c-.09.15-.13.35-.13.6v7.16h-1.08Z"/><path class="cls-2" d="M186.51,22.49c-.42,0-.75-.08-1.01-.23-.25-.15-.44-.37-.57-.65s-.21-.61-.25-1-.06-.81-.06-1.28v-3.1c0-.42.02-.81.07-1.17s.14-.67.28-.93c.14-.27.33-.47.58-.62.25-.15.58-.22.98-.22s.74.07.97.22c.24.15.41.36.53.63.12.27.19.59.22.96.03.37.05.77.05,1.2v1.61h-2.61v1.8c0,.62.04,1.09.12,1.4.08.31.31.47.67.47.24,0,.41-.07.51-.22.1-.15.16-.36.19-.63.02-.27.04-.6.04-.98v-.7h1.05v.34c0,.46-.01.88-.04,1.26-.03.38-.1.71-.21.99-.11.28-.29.49-.53.64-.24.15-.58.22-1.01.22ZM185.72,17.11h1.53v-1.14c0-.38-.01-.71-.03-.97-.02-.26-.08-.46-.18-.6s-.26-.2-.49-.2c-.25,0-.43.08-.55.23s-.2.36-.23.63-.05.59-.05.95v1.1Z"/><path class="cls-2" d="M194,22.43c-.38,0-.67-.04-.87-.13-.19-.09-.32-.23-.39-.43-.07-.2-.1-.47-.1-.8v-6.81h-.85v-.81h.85v-1.6h1.08v1.6h1.01v.81h-1.01v6.77c0,.16.02.27.06.35.04.08.13.13.27.15.14.02.37.04.68.04v.88h-.74Z"/><path class="cls-2" d="M197.23,22.49c-.42,0-.75-.08-1.01-.22-.25-.15-.44-.36-.58-.64-.13-.28-.22-.61-.26-.99-.04-.38-.06-.81-.06-1.27v-3.11c0-.56.05-1.07.14-1.52s.27-.8.55-1.06c.27-.26.68-.39,1.22-.39.41,0,.74.07.98.22.25.15.44.36.57.63s.22.58.26.94.07.75.07,1.17v3.11c0,.46-.02.88-.06,1.26-.04.38-.12.71-.24.99-.12.28-.31.5-.56.65-.25.15-.59.23-1.01.23ZM197.23,21.57c.23,0,.4-.08.52-.24.11-.16.19-.38.22-.66.04-.28.06-.61.06-.99v-3.66c0-.36-.02-.68-.06-.95-.04-.27-.11-.48-.22-.64-.11-.15-.28-.23-.52-.23s-.42.08-.54.23c-.12.15-.19.37-.23.64-.04.27-.05.59-.05.95v3.66c0,.38.02.71.05.99.04.28.11.5.23.66.12.16.3.24.54.24Z"/><path class="cls-2" d="M2.06,36.65c-.51,0-.89-.21-1.13-.62s-.36-.99-.37-1.74v-1c0-.36.07-.66.2-.91.14-.25.33-.45.57-.63.24-.17.53-.33.86-.47.33-.14.68-.29,1.07-.45v-.66c0-.42-.01-.75-.04-1.01s-.09-.45-.19-.58c-.1-.12-.27-.19-.5-.19s-.4.06-.51.18c-.11.12-.18.32-.22.58-.03.27-.05.61-.05,1.04v.27H.68v-.25c0-.38.02-.73.06-1.06.04-.33.12-.62.24-.88.12-.25.31-.45.56-.6s.59-.22,1.01-.22.74.07.98.2c.24.13.42.33.54.6.12.26.19.59.23.97.04.38.05.83.05,1.33v6h-1.08v-.73c-.03.1-.1.21-.19.34s-.23.23-.4.33c-.17.09-.37.14-.61.14ZM2.32,35.77c.23,0,.43-.07.6-.2.17-.14.28-.27.34-.4v-3.56c-.34.15-.62.28-.83.39-.21.11-.37.23-.49.36-.11.12-.19.27-.23.45-.04.17-.06.39-.06.66v.78c0,.55.04.94.13,1.18s.27.35.54.35Z"/><path class="cls-2" d="M5.52,36.58v-8.98h1.08v.92c.08-.27.25-.51.52-.72.26-.21.58-.31.93-.31.42,0,.75.15,1.01.46.25.31.38.79.38,1.43v7.21h-1.08v-7.23c0-.34-.08-.59-.23-.73-.16-.14-.35-.21-.58-.21-.16,0-.32.03-.46.1-.14.07-.26.17-.35.32s-.13.35-.13.6v7.16h-1.08Z"/><path class="cls-2" d="M12.45,36.68c-.42,0-.75-.08-1.01-.22-.25-.15-.44-.36-.58-.64s-.22-.61-.26-.99c-.04-.38-.06-.81-.06-1.27v-3.11c0-.56.05-1.07.14-1.51s.27-.8.55-1.06.68-.39,1.22-.39c.41,0,.73.07.98.22.25.15.44.36.57.63.13.27.22.58.26.94s.07.75.07,1.17v3.11c0,.46-.02.88-.06,1.26-.04.38-.12.71-.24.99-.12.28-.31.5-.56.65-.25.15-.59.23-1.01.23ZM12.45,35.77c.23,0,.4-.08.52-.24.11-.16.19-.38.22-.66.04-.28.06-.61.06-.99v-3.66c0-.36-.02-.68-.06-.95-.04-.27-.11-.48-.22-.64-.11-.15-.28-.23-.52-.23s-.42.08-.54.23c-.12.15-.19.37-.23.64s-.05.59-.05.95v3.66c0,.38.02.7.05.99.04.28.11.5.23.66.12.16.3.24.54.24Z"/><path class="cls-2" d="M17.08,36.63c-.38,0-.67-.04-.87-.13s-.32-.23-.39-.43c-.07-.2-.1-.47-.1-.8v-6.81h-.85v-.81h.85v-1.6h1.08v1.6h1.01v.81h-1.01v6.77c0,.16.02.27.06.35.04.08.13.13.27.15.14.02.37.04.68.04v.88h-.74Z"/><path class="cls-2" d="M18.55,36.58v-10.67h1.08v2.61c.08-.27.25-.51.52-.72.26-.21.57-.31.93-.31.42,0,.76.15,1.01.46.25.31.38.79.38,1.43v7.21h-1.08v-7.12c0-.4-.07-.66-.22-.81-.14-.14-.33-.21-.56-.21-.16,0-.32.04-.47.11-.15.07-.27.19-.36.35-.09.16-.14.38-.14.67v7.01h-1.08Z"/><path class="cls-2" d="M25.46,36.68c-.42,0-.75-.08-1.01-.23-.25-.15-.44-.37-.57-.65s-.21-.61-.25-1c-.04-.38-.06-.81-.06-1.28v-3.1c0-.42.02-.81.07-1.17s.14-.67.28-.93.33-.47.58-.62c.25-.15.58-.22.98-.22s.74.08.97.22c.24.15.41.36.53.63.12.27.19.59.22.96.03.37.05.77.05,1.2v1.61h-2.61v1.8c0,.62.04,1.09.13,1.4.08.31.31.47.67.47.24,0,.41-.08.51-.22.1-.15.16-.36.19-.63s.04-.6.04-.98v-.7h1.05v.34c0,.46-.01.88-.04,1.26s-.1.71-.21.99-.29.49-.53.64-.58.22-1.01.22ZM24.66,31.3h1.53v-1.14c0-.38-.01-.71-.03-.97-.02-.26-.08-.46-.18-.6-.1-.14-.26-.2-.49-.2-.25,0-.43.08-.55.23-.12.15-.2.36-.23.63s-.05.59-.05.95v1.1Z"/><path class="cls-2" d="M28.32,36.58v-8.98h1.08v1c.1-.35.28-.62.54-.81.26-.2.59-.29.99-.29,0,0,.01.05.02.14,0,.09,0,.2,0,.32v.46c-.19,0-.38.02-.57.07-.19.05-.36.13-.52.25-.16.12-.32.28-.46.49v7.37h-1.08Z"/><path class="cls-2" d="M35.43,36.65c-.51,0-.89-.21-1.13-.62s-.36-.99-.37-1.74v-1c0-.36.07-.66.2-.91.14-.25.33-.45.57-.63.24-.17.53-.33.86-.47.33-.14.68-.29,1.07-.45v-.66c0-.42-.01-.75-.04-1.01s-.09-.45-.19-.58c-.1-.12-.27-.19-.5-.19s-.4.06-.51.18c-.11.12-.18.32-.22.58-.03.27-.05.61-.05,1.04v.27h-1.08v-.25c0-.38.02-.73.06-1.06.04-.33.12-.62.24-.88.12-.25.31-.45.56-.6s.59-.22,1.01-.22.74.07.98.2c.24.13.42.33.54.6.12.26.19.59.23.97.04.38.05.83.05,1.33v6h-1.08v-.73c-.03.1-.1.21-.19.34s-.23.23-.4.33c-.17.09-.37.14-.61.14ZM35.69,35.77c.23,0,.43-.07.6-.2.17-.14.28-.27.34-.4v-3.56c-.34.15-.62.28-.83.39-.21.11-.37.23-.49.36-.11.12-.19.27-.23.45-.04.17-.06.39-.06.66v.78c0,.55.04.94.13,1.18s.27.35.54.35Z"/><path class="cls-2" d="M38.88,36.58v-8.98h1.08v.92c.08-.27.25-.51.52-.72.26-.21.58-.31.93-.31.42,0,.75.15,1.01.46.25.31.38.79.38,1.43v7.21h-1.08v-7.23c0-.34-.08-.59-.23-.73-.16-.14-.35-.21-.58-.21-.16,0-.32.03-.46.1-.14.07-.26.17-.35.32s-.13.35-.13.6v7.16h-1.08Z"/><path class="cls-2" d="M45.39,36.65c-.43,0-.75-.13-.96-.39-.21-.26-.35-.61-.42-1.05s-.1-.95-.1-1.51v-3.29c0-.55.04-1.05.13-1.49s.26-.79.5-1.04.6-.38,1.05-.38c.22,0,.43.07.6.21s.31.31.4.51v-2.3h1.08v10.67h-1.08v-.72c-.12.29-.29.5-.51.62-.22.12-.46.18-.7.18ZM45.75,35.76c.19,0,.35-.04.48-.13.13-.09.23-.26.29-.52.07-.26.1-.66.1-1.18v-3.61c0-.65-.05-1.13-.15-1.44-.1-.31-.33-.47-.68-.47-.32,0-.53.16-.63.46-.1.31-.16.8-.16,1.48v3.59c0,.36.02.68.05.95.03.27.1.48.21.63.11.15.27.22.49.22Z"/><path class="cls-2" d="M53.12,36.63c-.38,0-.67-.04-.87-.13s-.32-.23-.39-.43c-.07-.2-.1-.47-.1-.8v-6.81h-.85v-.81h.85v-1.6h1.08v1.6h1.01v.81h-1.01v6.77c0,.16.02.27.06.35.04.08.13.13.27.15.14.02.37.04.68.04v.88h-.74Z"/><path class="cls-2" d="M54.6,36.58v-10.67h1.08v2.61c.08-.27.25-.51.52-.72.26-.21.57-.31.93-.31.42,0,.76.15,1.01.46.25.31.38.79.38,1.43v7.21h-1.08v-7.12c0-.4-.07-.66-.22-.81-.14-.14-.33-.21-.56-.21-.16,0-.32.04-.47.11-.15.07-.27.19-.36.35-.09.16-.14.38-.14.67v7.01h-1.08Z"/><path class="cls-2" d="M61.5,36.68c-.42,0-.75-.08-1.01-.23-.25-.15-.44-.37-.57-.65s-.21-.61-.25-1c-.04-.38-.06-.81-.06-1.28v-3.1c0-.42.02-.81.07-1.17s.14-.67.28-.93.33-.47.58-.62c.25-.15.58-.22.98-.22s.74.08.97.22c.24.15.41.36.53.63.12.27.19.59.22.96.03.37.05.77.05,1.2v1.61h-2.61v1.8c0,.62.04,1.09.13,1.4.08.31.31.47.67.47.24,0,.41-.08.51-.22.1-.15.16-.36.19-.63s.04-.6.04-.98v-.7h1.05v.34c0,.46-.01.88-.04,1.26s-.1.71-.21.99-.29.49-.53.64-.58.22-1.01.22ZM60.71,31.3h1.53v-1.14c0-.38-.01-.71-.03-.97-.02-.26-.08-.46-.18-.6-.1-.14-.26-.2-.49-.2-.25,0-.43.08-.55.23-.12.15-.2.36-.23.63s-.05.59-.05.95v1.1Z"/><path class="cls-2" d="M66.93,36.58v-10.54h1.08v9.66h1.91v.88h-2.99Z"/><path class="cls-2" d="M72.21,36.68c-.42,0-.75-.08-1.01-.22-.25-.15-.44-.36-.58-.64s-.22-.61-.26-.99c-.04-.38-.06-.81-.06-1.27v-3.11c0-.56.05-1.07.14-1.51s.27-.8.55-1.06.68-.39,1.22-.39c.41,0,.73.07.98.22.25.15.44.36.57.63.13.27.22.58.26.94s.07.75.07,1.17v3.11c0,.46-.02.88-.06,1.26-.04.38-.12.71-.24.99-.12.28-.31.5-.56.65-.25.15-.59.23-1.01.23ZM72.21,35.77c.23,0,.4-.08.52-.24.11-.16.19-.38.22-.66.04-.28.06-.61.06-.99v-3.66c0-.36-.02-.68-.06-.95-.04-.27-.11-.48-.22-.64-.11-.15-.28-.23-.52-.23s-.42.08-.54.23c-.12.15-.19.37-.23.64s-.05.59-.05.95v3.66c0,.38.02.7.05.99.04.28.11.5.23.66.12.16.3.24.54.24Z"/><path class="cls-2" d="M75.26,36.58v-8.98h1.08v1c.1-.35.28-.62.54-.81.26-.2.59-.29.99-.29,0,0,.01.05.02.14,0,.09,0,.2,0,.32v.46c-.19,0-.38.02-.57.07-.19.05-.36.13-.52.25-.16.12-.32.28-.46.49v7.37h-1.08Z"/><path class="cls-2" d="M79.83,36.65c-.43,0-.75-.13-.96-.39-.21-.26-.35-.61-.42-1.05s-.1-.95-.1-1.51v-3.29c0-.55.04-1.05.13-1.49s.26-.79.5-1.04.6-.38,1.05-.38c.22,0,.43.07.6.21s.31.31.4.51v-2.3h1.08v10.67h-1.08v-.72c-.12.29-.29.5-.51.62-.22.12-.46.18-.7.18ZM80.18,35.76c.19,0,.35-.04.48-.13.13-.09.23-.26.29-.52.07-.26.1-.66.1-1.18v-3.61c0-.65-.05-1.13-.15-1.44-.1-.31-.33-.47-.68-.47-.32,0-.53.16-.63.46-.1.31-.16.8-.16,1.48v3.59c0,.36.02.68.05.95.03.27.1.48.21.63.11.15.27.22.49.22Z"/><path class="cls-2" d="M85.98,36.58v-10.67h1.08v2.61c.08-.27.25-.51.52-.72.26-.21.57-.31.93-.31.42,0,.76.15,1.01.46.25.31.38.79.38,1.43v7.21h-1.08v-7.12c0-.4-.07-.66-.22-.81-.14-.14-.33-.21-.56-.21-.16,0-.32.04-.47.11-.15.07-.27.19-.36.35-.09.16-.14.38-.14.67v7.01h-1.08Z"/><path class="cls-2" d="M92.89,36.68c-.42,0-.75-.08-1.01-.23-.25-.15-.44-.37-.57-.65s-.21-.61-.25-1c-.04-.38-.06-.81-.06-1.28v-3.1c0-.42.02-.81.07-1.17s.14-.67.28-.93.33-.47.58-.62c.25-.15.58-.22.98-.22s.74.08.97.22c.24.15.41.36.53.63.12.27.19.59.22.96.03.37.05.77.05,1.2v1.61h-2.61v1.8c0,.62.04,1.09.13,1.4.08.31.31.47.67.47.24,0,.41-.08.51-.22.1-.15.16-.36.19-.63s.04-.6.04-.98v-.7h1.05v.34c0,.46-.01.88-.04,1.26s-.1.71-.21.99-.29.49-.53.64-.58.22-1.01.22ZM92.09,31.3h1.53v-1.14c0-.38-.01-.71-.03-.97-.02-.26-.08-.46-.18-.6-.1-.14-.26-.2-.49-.2-.25,0-.43.08-.55.23-.12.15-.2.36-.23.63s-.05.59-.05.95v1.1Z"/><path class="cls-2" d="M97.04,36.65c-.51,0-.89-.21-1.13-.62s-.36-.99-.37-1.74v-1c0-.36.07-.66.2-.91.14-.25.33-.45.57-.63.24-.17.53-.33.86-.47.33-.14.68-.29,1.07-.45v-.66c0-.42-.01-.75-.04-1.01s-.09-.45-.19-.58c-.1-.12-.27-.19-.5-.19s-.4.06-.51.18c-.11.12-.18.32-.22.58-.03.27-.05.61-.05,1.04v.27h-1.08v-.25c0-.38.02-.73.06-1.06.04-.33.12-.62.24-.88.12-.25.31-.45.56-.6s.59-.22,1.01-.22.74.07.98.2c.24.13.42.33.54.6.12.26.19.59.23.97.04.38.05.83.05,1.33v6h-1.08v-.73c-.03.1-.1.21-.19.34s-.23.23-.4.33c-.17.09-.37.14-.61.14ZM97.3,35.77c.23,0,.43-.07.6-.2.17-.14.28-.27.34-.4v-3.56c-.34.15-.62.28-.83.39-.21.11-.37.23-.49.36-.11.12-.19.27-.23.45-.04.17-.06.39-.06.66v.78c0,.55.04.94.13,1.18s.27.35.54.35Z"/><path class="cls-2" d="M100.51,36.58v-8.98h1.08v1c.1-.35.28-.62.54-.81.26-.2.59-.29.99-.29,0,0,.01.05.02.14,0,.09,0,.2,0,.32v.46c-.19,0-.38.02-.57.07-.19.05-.36.13-.52.25-.16.12-.32.28-.46.49v7.37h-1.08Z"/><path class="cls-2" d="M103.77,36.58v-10.67h1.08v6.03l1.86-4.34h1.08l-1.96,4.44,2.07,4.54h-1.12l-1.93-4.4v4.4h-1.08Z"/><path class="cls-2" d="M110.19,36.68c-.42,0-.75-.08-1.01-.23-.25-.15-.44-.37-.57-.65s-.21-.61-.25-1c-.04-.38-.06-.81-.06-1.28v-3.1c0-.42.02-.81.07-1.17s.14-.67.28-.93.33-.47.58-.62c.25-.15.58-.22.98-.22s.74.08.97.22c.24.15.41.36.53.63.12.27.19.59.22.96.03.37.05.77.05,1.2v1.61h-2.61v1.8c0,.62.04,1.09.13,1.4.08.31.31.47.67.47.24,0,.41-.08.51-.22.1-.15.16-.36.19-.63s.04-.6.04-.98v-.7h1.05v.34c0,.46-.01.88-.04,1.26s-.1.71-.21.99-.29.49-.53.64-.58.22-1.01.22ZM109.39,31.3h1.53v-1.14c0-.38-.01-.71-.03-.97-.02-.26-.08-.46-.18-.6-.1-.14-.26-.2-.49-.2-.25,0-.43.08-.55.23-.12.15-.2.36-.23.63s-.05.59-.05.95v1.1Z"/><path class="cls-2" d="M113.04,36.58v-8.98h1.08v.92c.08-.27.25-.51.52-.72.26-.21.58-.31.93-.31.42,0,.75.15,1.01.46.25.31.38.79.38,1.43v7.21h-1.08v-7.23c0-.34-.08-.59-.23-.73-.16-.14-.35-.21-.58-.21-.16,0-.32.03-.46.1-.14.07-.26.17-.35.32s-.13.35-.13.6v7.16h-1.08Z"/><path class="cls-2" d="M119.95,36.68c-.42,0-.75-.08-1.01-.23-.25-.15-.44-.37-.57-.65s-.21-.61-.25-1c-.04-.38-.06-.81-.06-1.28v-3.1c0-.42.02-.81.07-1.17s.14-.67.28-.93.33-.47.58-.62c.25-.15.58-.22.98-.22s.74.08.97.22c.24.15.41.36.53.63.12.27.19.59.22.96.03.37.05.77.05,1.2v1.61h-2.61v1.8c0,.62.04,1.09.13,1.4.08.31.31.47.67.47.24,0,.41-.08.51-.22.1-.15.16-.36.19-.63s.04-.6.04-.98v-.7h1.05v.34c0,.46-.01.88-.04,1.26s-.1.71-.21.99-.29.49-.53.64-.58.22-1.01.22ZM119.15,31.3h1.53v-1.14c0-.38-.01-.71-.03-.97-.02-.26-.08-.46-.18-.6-.1-.14-.26-.2-.49-.2-.25,0-.43.08-.55.23-.12.15-.2.36-.23.63s-.05.59-.05.95v1.1Z"/><path class="cls-2" d="M124.13,36.65c-.43,0-.75-.13-.96-.39-.21-.26-.35-.61-.42-1.05s-.1-.95-.1-1.51v-3.29c0-.55.04-1.05.13-1.49s.26-.79.5-1.04.6-.38,1.05-.38c.22,0,.43.07.6.21s.31.31.4.51v-2.3h1.08v10.67h-1.08v-.72c-.12.29-.29.5-.51.62-.22.12-.46.18-.7.18ZM124.48,35.76c.19,0,.35-.04.48-.13.13-.09.23-.26.29-.52.07-.26.1-.66.1-1.18v-3.61c0-.65-.05-1.13-.15-1.44-.1-.31-.33-.47-.68-.47-.32,0-.53.16-.63.46-.1.31-.16.8-.16,1.48v3.59c0,.36.02.68.05.95.03.27.1.48.21.63.11.15.27.22.49.22Z"/><path class="cls-2" d="M127.8,38.65l.5-2.08h-.72v-1.24h1.39v1.19l-.62,2.13h-.56Z"/><path class="cls-2" d="M133.79,36.65c-.51,0-.89-.21-1.13-.62s-.36-.99-.37-1.74v-1c0-.36.07-.66.2-.91.14-.25.33-.45.57-.63.24-.17.53-.33.86-.47.33-.14.68-.29,1.07-.45v-.66c0-.42-.01-.75-.04-1.01s-.09-.45-.19-.58c-.1-.12-.27-.19-.5-.19s-.4.06-.51.18c-.11.12-.18.32-.22.58-.03.27-.05.61-.05,1.04v.27h-1.08v-.25c0-.38.02-.73.06-1.06.04-.33.12-.62.24-.88.12-.25.31-.45.56-.6s.59-.22,1.01-.22.74.07.98.2c.24.13.42.33.54.6.12.26.19.59.23.97.04.38.05.83.05,1.33v6h-1.08v-.73c-.03.1-.1.21-.19.34s-.23.23-.4.33c-.17.09-.37.14-.61.14ZM134.05,35.77c.23,0,.43-.07.6-.2.17-.14.28-.27.34-.4v-3.56c-.34.15-.62.28-.83.39-.21.11-.37.23-.49.36-.11.12-.19.27-.23.45-.04.17-.06.39-.06.66v.78c0,.55.04.94.13,1.18s.27.35.54.35Z"/><path class="cls-2" d="M137.24,36.58v-8.98h1.08v.92c.08-.27.25-.51.52-.72.26-.21.58-.31.93-.31.42,0,.75.15,1.01.46.25.31.38.79.38,1.43v7.21h-1.08v-7.23c0-.34-.08-.59-.23-.73-.16-.14-.35-.21-.58-.21-.16,0-.32.03-.46.1-.14.07-.26.17-.35.32s-.13.35-.13.6v7.16h-1.08Z"/><path class="cls-2" d="M143.75,36.65c-.43,0-.75-.13-.96-.39-.21-.26-.35-.61-.42-1.05s-.1-.95-.1-1.51v-3.29c0-.55.04-1.05.13-1.49s.26-.79.5-1.04.6-.38,1.05-.38c.22,0,.43.07.6.21s.31.31.4.51v-2.3h1.08v10.67h-1.08v-.72c-.12.29-.29.5-.51.62-.22.12-.46.18-.7.18ZM144.11,35.76c.19,0,.35-.04.48-.13.13-.09.23-.26.29-.52.07-.26.1-.66.1-1.18v-3.61c0-.65-.05-1.13-.15-1.44-.1-.31-.33-.47-.68-.47-.32,0-.53.16-.63.46-.1.31-.16.8-.16,1.48v3.59c0,.36.02.68.05.95.03.27.1.48.21.63.11.15.27.22.49.22Z"/><path class="cls-2" d="M149.9,36.58v-10.67h1.08v2.61c.08-.27.25-.51.52-.72.26-.21.57-.31.93-.31.42,0,.76.15,1.01.46.25.31.38.79.38,1.43v7.21h-1.08v-7.12c0-.4-.07-.66-.22-.81-.14-.14-.33-.21-.56-.21-.16,0-.32.04-.47.11-.15.07-.27.19-.36.35-.09.16-.14.38-.14.67v7.01h-1.08Z"/><path class="cls-2" d="M156.81,36.68c-.42,0-.75-.08-1.01-.23-.25-.15-.44-.37-.57-.65s-.21-.61-.25-1c-.04-.38-.06-.81-.06-1.28v-3.1c0-.42.02-.81.07-1.17s.14-.67.28-.93.33-.47.58-.62c.25-.15.58-.22.98-.22s.74.08.97.22c.24.15.41.36.53.63.12.27.19.59.22.96.03.37.05.77.05,1.2v1.61h-2.61v1.8c0,.62.04,1.09.13,1.4.08.31.31.47.67.47.24,0,.41-.08.51-.22.1-.15.16-.36.19-.63s.04-.6.04-.98v-.7h1.05v.34c0,.46-.01.88-.04,1.26s-.1.71-.21.99-.29.49-.53.64-.58.22-1.01.22ZM156.01,31.3h1.53v-1.14c0-.38-.01-.71-.03-.97-.02-.26-.08-.46-.18-.6-.1-.14-.26-.2-.49-.2-.25,0-.43.08-.55.23-.12.15-.2.36-.23.63s-.05.59-.05.95v1.1Z"/><path class="cls-2" d="M160.96,36.65c-.51,0-.89-.21-1.13-.62s-.36-.99-.37-1.74v-1c0-.36.07-.66.2-.91.14-.25.33-.45.57-.63.24-.17.53-.33.86-.47.33-.14.68-.29,1.07-.45v-.66c0-.42-.01-.75-.04-1.01-.02-.26-.09-.45-.19-.58s-.27-.19-.5-.19-.4.06-.51.18c-.11.12-.18.32-.22.58-.03.27-.05.61-.05,1.04v.27h-1.08v-.25c0-.38.02-.73.06-1.06.04-.33.12-.62.24-.88.12-.25.31-.45.56-.6s.59-.22,1.01-.22.74.07.98.2.42.33.54.6.19.59.23.97c.04.38.05.83.05,1.33v6h-1.08v-.73c-.03.1-.1.21-.19.34s-.23.23-.4.33-.37.14-.61.14ZM161.23,35.77c.23,0,.43-.07.6-.2.17-.14.29-.27.34-.4v-3.56c-.34.15-.62.28-.83.39-.21.11-.37.23-.49.36-.11.12-.19.27-.23.45-.04.17-.06.39-.06.66v.78c0,.55.04.94.13,1.18s.27.35.54.35Z"/><path class="cls-2" d="M164.43,36.58v-8.98h1.08v1c.1-.35.29-.62.54-.81.26-.2.59-.29.99-.29,0,0,.01.05.02.14,0,.09,0,.2,0,.32v.46c-.19,0-.38.02-.57.07s-.36.13-.52.25c-.16.12-.32.28-.46.49v7.37h-1.08Z"/><path class="cls-2" d="M169,36.65c-.43,0-.75-.13-.96-.39-.21-.26-.35-.61-.42-1.05-.07-.45-.1-.95-.1-1.51v-3.29c0-.55.04-1.05.13-1.49s.26-.79.5-1.04c.25-.26.6-.38,1.05-.38.22,0,.43.07.61.21s.31.31.4.51v-2.3h1.08v10.67h-1.08v-.72c-.12.29-.29.5-.51.62-.22.12-.46.18-.7.18ZM169.35,35.76c.19,0,.35-.04.48-.13s.23-.26.29-.52c.07-.26.1-.66.1-1.18v-3.61c0-.65-.05-1.13-.15-1.44-.1-.31-.33-.47-.68-.47-.32,0-.53.16-.63.46s-.16.8-.16,1.48v3.59c0,.36.02.68.05.95.03.27.1.48.21.63.11.15.27.22.49.22Z"/><path class="cls-2" d="M175.17,26.76v-1.01h1.08v1.01h-1.08ZM175.17,36.58v-8.98h1.08v8.98h-1.08Z"/><path class="cls-2" d="M179.18,36.63c-.38,0-.67-.04-.87-.13-.19-.09-.32-.23-.39-.43-.07-.2-.1-.47-.1-.8v-6.81h-.85v-.81h.85v-1.6h1.08v1.6h1.01v.81h-1.01v6.77c0,.16.02.27.06.35.04.08.13.13.27.15.14.02.37.04.68.04v.88h-.74Z"/><path class="cls-2" d="M180.74,38.65l.5-2.08h-.72v-1.24h1.39v1.19l-.62,2.13h-.56Z"/><path class="cls-2" d="M186.72,36.65c-.51,0-.89-.21-1.13-.62-.24-.41-.36-.99-.37-1.74v-1c0-.36.07-.66.2-.91.14-.25.33-.45.57-.63.24-.17.53-.33.86-.47s.68-.29,1.07-.45v-.66c0-.42-.01-.75-.04-1.01-.02-.26-.09-.45-.19-.58-.1-.12-.27-.19-.5-.19s-.4.06-.51.18-.18.32-.22.58-.05.61-.05,1.04v.27h-1.08v-.25c0-.38.02-.73.06-1.06.04-.33.12-.62.24-.88.12-.25.31-.45.56-.6.25-.15.59-.22,1.01-.22s.74.07.98.2c.24.13.42.33.54.6.12.26.2.59.23.97.04.38.05.83.05,1.33v6h-1.08v-.73c-.03.1-.1.21-.2.34s-.23.23-.39.33c-.17.09-.37.14-.61.14ZM186.98,35.77c.23,0,.43-.07.6-.2s.28-.27.34-.4v-3.56c-.34.15-.62.28-.83.39-.21.11-.37.23-.49.36-.11.12-.19.27-.23.45-.04.17-.06.39-.06.66v.78c0,.55.04.94.13,1.18s.27.35.54.35Z"/><path class="cls-2" d="M190.18,36.58v-8.98h1.08v.92c.08-.27.25-.51.52-.72s.58-.31.93-.31c.42,0,.75.15,1.01.46.25.31.38.79.38,1.43v7.21h-1.08v-7.23c0-.34-.08-.59-.23-.73-.16-.14-.35-.21-.58-.21-.16,0-.32.03-.46.1-.14.07-.26.17-.35.32s-.13.35-.13.6v7.16h-1.08Z"/><path class="cls-2" d="M196.69,36.65c-.43,0-.75-.13-.96-.39-.21-.26-.35-.61-.42-1.05-.07-.45-.1-.95-.1-1.51v-3.29c0-.55.04-1.05.13-1.49s.26-.79.5-1.04c.25-.26.6-.38,1.05-.38.22,0,.43.07.61.21s.31.31.4.51v-2.3h1.08v10.67h-1.08v-.72c-.12.29-.29.5-.51.62-.22.12-.46.18-.7.18ZM197.04,35.76c.19,0,.35-.04.48-.13s.23-.26.29-.52c.07-.26.1-.66.1-1.18v-3.61c0-.65-.05-1.13-.15-1.44-.1-.31-.33-.47-.68-.47-.32,0-.53.16-.63.46s-.16.8-.16,1.48v3.59c0,.36.02.68.05.95.03.27.1.48.21.63.11.15.27.22.49.22Z"/><path class="cls-2" d="M2.06,50.84c-.51,0-.89-.21-1.13-.62s-.36-.99-.37-1.74v-1c0-.36.07-.66.2-.91.14-.25.33-.45.57-.63s.53-.33.86-.47c.33-.14.68-.29,1.07-.45v-.66c0-.42-.01-.75-.04-1.02s-.09-.45-.19-.58c-.1-.12-.27-.19-.5-.19s-.4.06-.51.18c-.11.12-.18.32-.22.58-.03.27-.05.61-.05,1.04v.27H.68v-.25c0-.38.02-.73.06-1.06.04-.33.12-.62.24-.87.12-.25.31-.45.56-.6.25-.15.59-.22,1.01-.22s.74.07.98.2c.24.13.42.33.54.6.12.26.19.59.23.97.04.38.05.83.05,1.33v6h-1.08v-.73c-.03.1-.1.21-.19.34-.1.12-.23.23-.4.33-.17.09-.37.14-.61.14ZM2.32,49.96c.23,0,.43-.07.6-.2.17-.14.28-.27.34-.4v-3.56c-.34.15-.62.28-.83.39-.21.11-.37.23-.49.36s-.19.27-.23.45-.06.39-.06.66v.78c0,.55.04.94.13,1.18.09.24.27.35.54.35Z"/><path class="cls-2" d="M9.93,50.84c-.24,0-.47-.06-.69-.18-.22-.12-.4-.32-.52-.62v.72h-1.08v-10.67h1.08v2.42c.06-.25.19-.46.41-.61.22-.15.44-.23.68-.24.45,0,.79.12,1.02.38s.39.61.47,1.06c.08.45.12.95.12,1.5v3.31c0,.55-.04,1.05-.11,1.49-.07.44-.22.79-.43,1.04-.21.26-.53.38-.95.38ZM9.57,49.95c.31,0,.52-.16.61-.46.1-.31.15-.8.15-1.5v-3.59c0-.36-.02-.68-.04-.95s-.1-.48-.2-.63c-.1-.15-.26-.22-.49-.22-.18,0-.34.04-.47.12-.13.08-.23.25-.31.51-.07.26-.11.65-.11,1.17v3.62c0,.66.05,1.14.16,1.46.11.32.34.47.69.47Z"/><path class="cls-2" d="M14.34,50.88c-.42,0-.75-.08-1.01-.22-.25-.15-.44-.36-.58-.64-.13-.28-.22-.61-.26-.99-.04-.38-.06-.81-.06-1.27v-3.11c0-.56.05-1.07.14-1.52s.27-.8.55-1.06c.27-.26.68-.39,1.22-.39.41,0,.73.07.98.22.25.15.44.36.57.63.13.27.22.58.26.94s.07.75.07,1.17v3.11c0,.46-.02.88-.06,1.26-.04.38-.12.71-.24.99-.12.28-.31.5-.56.65-.25.15-.59.23-1.01.23ZM14.34,49.96c.23,0,.4-.08.52-.24s.19-.38.22-.66c.04-.28.06-.61.06-.99v-3.66c0-.36-.02-.68-.06-.95-.04-.27-.11-.48-.22-.64-.11-.15-.28-.23-.52-.23s-.42.08-.54.23c-.12.15-.19.37-.23.64-.04.27-.05.59-.05.95v3.66c0,.38.02.71.05.99.04.28.11.5.23.66.12.16.3.24.54.24Z"/><path class="cls-2" d="M19.13,50.88c-.42,0-.75-.08-1.01-.22-.25-.15-.44-.36-.58-.64-.13-.28-.22-.61-.26-.99-.04-.38-.06-.81-.06-1.27v-3.11c0-.56.05-1.07.14-1.52s.27-.8.55-1.06c.27-.26.68-.39,1.22-.39.41,0,.73.07.98.22.25.15.44.36.57.63.13.27.22.58.26.94s.07.75.07,1.17v3.11c0,.46-.02.88-.06,1.26-.04.38-.12.71-.24.99-.12.28-.31.5-.56.65-.25.15-.59.23-1.01.23ZM19.13,49.96c.23,0,.4-.08.52-.24s.19-.38.22-.66c.04-.28.06-.61.06-.99v-3.66c0-.36-.02-.68-.06-.95-.04-.27-.11-.48-.22-.64-.11-.15-.28-.23-.52-.23s-.42.08-.54.23c-.12.15-.19.37-.23.64-.04.27-.05.59-.05.95v3.66c0,.38.02.71.05.99.04.28.11.5.23.66.12.16.3.24.54.24Z"/><path class="cls-2" d="M22.2,50.77v-10.67h1.08v6.03l1.86-4.34h1.08l-1.96,4.44,2.07,4.54h-1.12l-1.93-4.4v4.4h-1.08Z"/><path class="cls-2" d="M30.75,50.88c-.42,0-.75-.08-1.01-.22-.25-.15-.44-.36-.58-.64-.13-.28-.22-.61-.26-.99-.04-.38-.06-.81-.06-1.27v-3.11c0-.56.05-1.07.14-1.52s.27-.8.55-1.06c.27-.26.68-.39,1.22-.39.41,0,.73.07.98.22.25.15.44.36.57.63.13.27.22.58.26.94s.07.75.07,1.17v3.11c0,.46-.02.88-.06,1.26-.04.38-.12.71-.24.99-.12.28-.31.5-.56.65-.25.15-.59.23-1.01.23ZM30.75,49.96c.23,0,.4-.08.52-.24s.19-.38.22-.66c.04-.28.06-.61.06-.99v-3.66c0-.36-.02-.68-.06-.95-.04-.27-.11-.48-.22-.64-.11-.15-.28-.23-.52-.23s-.42.08-.54.23c-.12.15-.19.37-.23.64-.04.27-.05.59-.05.95v3.66c0,.38.02.71.05.99.04.28.11.5.23.66.12.16.3.24.54.24Z"/><path class="cls-2" d="M34.14,50.77v-7.83h-.8v-.8h.8v-.43c0-.52.1-.93.31-1.21.21-.28.55-.42,1.03-.42.22,0,.42.02.58.05.17.04.25.06.27.06v.8c-.17-.03-.32-.04-.45-.04-.3,0-.48.06-.55.19-.07.12-.11.29-.11.49v.52h1.11v.8h-1.11v7.83h-1.08Z"/><path class="cls-2" d="M39.19,50.77v-8.98h1.08v1c.1-.35.28-.62.54-.81.26-.2.59-.29.99-.29,0,0,.01.05.02.14,0,.09,0,.2,0,.32v.46c-.19,0-.38.02-.57.07-.19.05-.36.13-.52.25-.16.12-.32.28-.46.49v7.37h-1.08Z"/><path class="cls-2" d="M44.16,50.88c-.42,0-.75-.08-1.01-.23-.25-.15-.44-.37-.57-.65s-.21-.61-.25-1-.06-.81-.06-1.28v-3.1c0-.42.02-.81.07-1.17s.14-.67.28-.93c.14-.26.33-.47.58-.62.25-.15.58-.22.98-.22s.74.07.97.22c.24.15.41.36.53.63.12.27.19.59.22.96.03.37.05.77.05,1.2v1.61h-2.61v1.8c0,.62.04,1.09.13,1.4.08.31.31.47.67.47.24,0,.41-.07.51-.22.1-.15.16-.36.19-.63s.04-.6.04-.98v-.7h1.05v.34c0,.46-.01.88-.04,1.26-.03.38-.1.71-.21.99-.11.28-.29.49-.53.64-.24.15-.58.22-1.01.22ZM43.36,45.5h1.53v-1.14c0-.38-.01-.71-.03-.97-.02-.26-.08-.46-.18-.6-.1-.14-.26-.2-.49-.2-.25,0-.43.08-.55.23-.12.15-.2.36-.23.63s-.05.59-.05.95v1.1Z"/><path class="cls-2" d="M47.01,50.77v-8.98h1.08v.92c.08-.27.24-.51.48-.72.25-.21.55-.31.9-.31.29,0,.54.07.76.22.22.15.38.38.48.69.15-.27.35-.49.62-.66s.57-.25.9-.25c.43,0,.77.16,1.02.47s.37.8.37,1.45v7.18h-1.08v-7.22c0-.35-.07-.59-.21-.72-.14-.13-.32-.2-.55-.2-.34,0-.57.07-.72.2-.14.14-.21.39-.21.75v7.18h-1.08v-7.23c0-.34-.07-.58-.21-.71s-.32-.2-.55-.2c-.3,0-.54.09-.69.27s-.24.44-.24.77v7.1h-1.08Z"/><path class="cls-2" d="M56.63,50.88c-.42,0-.75-.08-1.01-.23-.25-.15-.44-.37-.57-.65s-.21-.61-.25-1-.06-.81-.06-1.28v-3.1c0-.42.02-.81.07-1.17s.14-.67.28-.93c.14-.26.33-.47.58-.62.25-.15.58-.22.98-.22s.74.07.97.22c.24.15.41.36.53.63.12.27.19.59.22.96.03.37.05.77.05,1.2v1.61h-2.61v1.8c0,.62.04,1.09.13,1.4.08.31.31.47.67.47.24,0,.41-.07.51-.22.1-.15.16-.36.19-.63s.04-.6.04-.98v-.7h1.05v.34c0,.46-.01.88-.04,1.26-.03.38-.1.71-.21.99-.11.28-.29.49-.53.64-.24.15-.58.22-1.01.22ZM55.83,45.5h1.53v-1.14c0-.38-.01-.71-.03-.97-.02-.26-.08-.46-.18-.6-.1-.14-.26-.2-.49-.2-.25,0-.43.08-.55.23-.12.15-.2.36-.23.63s-.05.59-.05.95v1.1Z"/><path class="cls-2" d="M59.48,50.77v-8.98h1.08v.92c.08-.27.24-.51.48-.72.25-.21.55-.31.9-.31.29,0,.54.07.76.22.22.15.38.38.48.69.15-.27.35-.49.62-.66s.57-.25.9-.25c.43,0,.77.16,1.02.47s.37.8.37,1.45v7.18h-1.08v-7.22c0-.35-.07-.59-.21-.72-.14-.13-.32-.2-.55-.2-.34,0-.57.07-.72.2-.14.14-.21.39-.21.75v7.18h-1.08v-7.23c0-.34-.07-.58-.21-.71s-.32-.2-.55-.2c-.3,0-.54.09-.69.27s-.24.44-.24.77v7.1h-1.08Z"/><path class="cls-2" d="M69.68,50.84c-.24,0-.47-.06-.69-.18-.22-.12-.4-.32-.52-.62v.72h-1.08v-10.67h1.08v2.42c.06-.25.19-.46.41-.61.22-.15.44-.23.68-.24.45,0,.79.12,1.02.38s.39.61.47,1.06c.08.45.12.95.12,1.5v3.31c0,.55-.04,1.05-.11,1.49-.07.44-.22.79-.43,1.04-.21.26-.53.38-.95.38ZM69.32,49.95c.31,0,.52-.16.61-.46.1-.31.15-.8.15-1.5v-3.59c0-.36-.02-.68-.04-.95s-.1-.48-.2-.63c-.1-.15-.26-.22-.49-.22-.18,0-.34.04-.47.12-.13.08-.23.25-.31.51-.07.26-.11.65-.11,1.17v3.62c0,.66.05,1.14.16,1.46.11.32.34.47.69.47Z"/><path class="cls-2" d="M72.34,50.77v-8.98h1.08v1c.1-.35.28-.62.54-.81.26-.2.59-.29.99-.29,0,0,.01.05.02.14,0,.09,0,.2,0,.32v.46c-.19,0-.38.02-.57.07-.19.05-.36.13-.52.25-.16.12-.32.28-.46.49v7.37h-1.08Z"/><path class="cls-2" d="M76.88,50.84c-.51,0-.89-.21-1.13-.62s-.36-.99-.37-1.74v-1c0-.36.07-.66.2-.91.14-.25.33-.45.57-.63s.53-.33.86-.47c.33-.14.68-.29,1.07-.45v-.66c0-.42-.01-.75-.04-1.02s-.09-.45-.19-.58c-.1-.12-.27-.19-.5-.19s-.4.06-.51.18c-.11.12-.18.32-.22.58-.03.27-.05.61-.05,1.04v.27h-1.08v-.25c0-.38.02-.73.06-1.06.04-.33.12-.62.24-.87.12-.25.31-.45.56-.6.25-.15.59-.22,1.01-.22s.74.07.98.2c.24.13.42.33.54.6.12.26.19.59.23.97.04.38.05.83.05,1.33v6h-1.08v-.73c-.03.1-.1.21-.19.34-.1.12-.23.23-.4.33-.17.09-.37.14-.61.14ZM77.15,49.96c.23,0,.43-.07.6-.2.17-.14.28-.27.34-.4v-3.56c-.34.15-.62.28-.83.39-.21.11-.37.23-.49.36s-.19.27-.23.45-.06.39-.06.66v.78c0,.55.04.94.13,1.18.09.24.27.35.54.35Z"/><path class="cls-2" d="M80.34,50.77v-8.98h1.08v.92c.08-.27.25-.51.52-.72.26-.21.58-.31.93-.31.42,0,.75.15,1.01.46.25.31.38.78.38,1.43v7.21h-1.08v-7.23c0-.34-.08-.59-.23-.73s-.35-.22-.58-.22c-.16,0-.32.03-.46.1-.14.07-.26.17-.35.32-.09.15-.13.35-.13.6v7.16h-1.08Z"/><path class="cls-2" d="M87.26,50.88c-.42,0-.76-.08-1.01-.23-.25-.15-.44-.37-.57-.65-.13-.28-.21-.61-.25-1s-.06-.81-.06-1.28v-3.05c0-.58.04-1.09.13-1.54s.27-.81.54-1.07c.27-.26.69-.39,1.24-.39.4,0,.72.07.96.21.24.14.41.33.53.59.12.26.19.56.23.91.04.35.05.74.05,1.17v.47h-1.08v-.68c0-.38-.01-.69-.03-.94-.02-.25-.08-.45-.17-.58s-.26-.19-.49-.19c-.25,0-.43.07-.55.21-.12.14-.2.34-.23.61s-.06.58-.06.93v3.73c0,.41.02.75.05,1.02.03.27.1.47.22.6.11.13.29.19.53.19s.4-.07.51-.21c.1-.14.17-.34.19-.61s.04-.59.04-.96v-.79h1.08v.44c0,.46-.02.87-.05,1.25-.03.38-.11.7-.22.97-.12.27-.3.48-.54.63-.24.15-.57.22-.99.22Z"/><path class="cls-2" d="M91.82,50.88c-.42,0-.75-.08-1.01-.23-.25-.15-.44-.37-.57-.65s-.21-.61-.25-1-.06-.81-.06-1.28v-3.1c0-.42.02-.81.07-1.17s.14-.67.28-.93c.14-.26.33-.47.58-.62.25-.15.58-.22.98-.22s.74.07.97.22c.24.15.41.36.53.63.12.27.19.59.22.96.03.37.05.77.05,1.2v1.61h-2.61v1.8c0,.62.04,1.09.13,1.4.08.31.31.47.67.47.24,0,.41-.07.51-.22.1-.15.16-.36.19-.63s.04-.6.04-.98v-.7h1.05v.34c0,.46-.01.88-.04,1.26-.03.38-.1.71-.21.99-.11.28-.29.49-.53.64-.24.15-.58.22-1.01.22ZM91.02,45.5h1.53v-1.14c0-.38-.01-.71-.03-.97-.02-.26-.08-.46-.18-.6-.1-.14-.26-.2-.49-.2-.25,0-.43.08-.55.23-.12.15-.2.36-.23.63s-.05.59-.05.95v1.1Z"/><path class="cls-2" d="M97.26,50.77l-1.05-8.98h.94l.5,5.14.14,1.78h.06l.21-1.79.73-5.13h.93l.76,4.98.24,1.95h.05l.13-1.96.46-4.97h.91l-1.07,8.98h-1.02l-.89-7.33-1.06,7.33h-.98Z"/><path class="cls-2" d="M104.33,50.84c-.51,0-.89-.21-1.13-.62s-.36-.99-.37-1.74v-1c0-.36.07-.66.2-.91.14-.25.33-.45.57-.63s.53-.33.86-.47c.33-.14.68-.29,1.07-.45v-.66c0-.42-.01-.75-.04-1.02s-.09-.45-.19-.58c-.1-.12-.27-.19-.5-.19s-.4.06-.51.18c-.11.12-.18.32-.22.58-.03.27-.05.61-.05,1.04v.27h-1.08v-.25c0-.38.02-.73.06-1.06.04-.33.12-.62.24-.87.12-.25.31-.45.56-.6.25-.15.59-.22,1.01-.22s.74.07.98.2c.24.13.42.33.54.6.12.26.19.59.23.97.04.38.05.83.05,1.33v6h-1.08v-.73c-.03.1-.1.21-.19.34-.1.12-.23.23-.4.33-.17.09-.37.14-.61.14ZM104.6,49.96c.23,0,.43-.07.6-.2.17-.14.28-.27.34-.4v-3.56c-.34.15-.62.28-.83.39-.21.11-.37.23-.49.36s-.19.27-.23.45-.06.39-.06.66v.78c0,.55.04.94.13,1.18.09.24.27.35.54.35Z"/><path class="cls-2" d="M109.38,50.89c-.63,0-1.11-.2-1.42-.61s-.47-1.06-.47-1.98v-.72h1.06v.65c0,.55.06.97.19,1.27.12.29.32.44.58.44s.47-.09.59-.26c.12-.17.18-.49.18-.94,0-.22-.02-.43-.08-.64-.05-.21-.14-.42-.26-.63-.13-.21-.3-.43-.54-.65l-.65-.61c-.39-.38-.68-.77-.86-1.17s-.28-.83-.28-1.29c0-.7.16-1.22.49-1.56.33-.34.77-.5,1.33-.5.37,0,.69.09.96.26.27.17.47.46.6.87s.21.96.21,1.67v.49h-1.02v-.67c0-.56-.06-.98-.17-1.25s-.3-.42-.57-.42-.46.1-.58.29c-.12.19-.18.48-.19.88,0,.19.02.37.07.56.05.18.13.37.26.56.12.19.3.39.52.6l.63.61c.42.4.73.82.93,1.25.19.43.29.9.29,1.38,0,.65-.14,1.17-.43,1.55s-.74.58-1.36.58Z"/><path class="cls-2" d="M114.54,50.77l-1.05-8.98h.94l.5,5.14.14,1.78h.06l.21-1.79.73-5.13h.93l.76,4.98.24,1.95h.05l.13-1.96.46-4.97h.91l-1.07,8.98h-1.02l-.89-7.33-1.06,7.33h-.98Z"/><path class="cls-2" d="M120.33,50.77v-8.98h1.08v1c.1-.35.28-.62.54-.81.26-.2.59-.29.99-.29,0,0,.01.05.02.14,0,.09,0,.2,0,.32v.46c-.19,0-.38.02-.57.07-.19.05-.36.13-.52.25-.16.12-.32.28-.46.49v7.37h-1.08Z"/><path class="cls-2" d="M123.59,40.96v-1.01h1.08v1.01h-1.08ZM123.59,50.77v-8.98h1.08v8.98h-1.08Z"/><path class="cls-2" d="M127.6,50.83c-.38,0-.67-.04-.87-.13s-.32-.23-.39-.43c-.07-.2-.1-.47-.1-.8v-6.81h-.85v-.81h.85v-1.6h1.08v1.6h1.01v.81h-1.01v6.77c0,.16.02.27.06.35.04.08.13.13.27.15.14.02.37.04.68.04v.88h-.74Z"/><path class="cls-2" d="M130.65,50.83c-.38,0-.67-.04-.87-.13s-.32-.23-.39-.43c-.07-.2-.1-.47-.1-.8v-6.81h-.85v-.81h.85v-1.6h1.08v1.6h1.01v.81h-1.01v6.77c0,.16.02.27.06.35.04.08.13.13.27.15.14.02.37.04.68.04v.88h-.74Z"/><path class="cls-2" d="M133.84,50.88c-.42,0-.75-.08-1.01-.23-.25-.15-.44-.37-.57-.65s-.21-.61-.25-1-.06-.81-.06-1.28v-3.1c0-.42.02-.81.07-1.17s.14-.67.28-.93c.14-.26.33-.47.58-.62.25-.15.58-.22.98-.22s.74.07.97.22c.24.15.41.36.53.63.12.27.19.59.22.96.03.37.05.77.05,1.2v1.61h-2.61v1.8c0,.62.04,1.09.13,1.4.08.31.31.47.67.47.24,0,.41-.07.51-.22.1-.15.16-.36.19-.63s.04-.6.04-.98v-.7h1.05v.34c0,.46-.01.88-.04,1.26-.03.38-.1.71-.21.99-.11.28-.29.49-.53.64-.24.15-.58.22-1.01.22ZM133.05,45.5h1.53v-1.14c0-.38-.01-.71-.03-.97-.02-.26-.08-.46-.18-.6-.1-.14-.26-.2-.49-.2-.25,0-.43.08-.55.23-.12.15-.2.36-.23.63s-.05.59-.05.95v1.1Z"/><path class="cls-2" d="M136.7,50.77v-8.98h1.08v.92c.08-.27.25-.51.52-.72.26-.21.58-.31.93-.31.42,0,.75.15,1.01.46.25.31.38.78.38,1.43v7.21h-1.08v-7.23c0-.34-.08-.59-.23-.73s-.35-.22-.58-.22c-.16,0-.32.03-.46.1-.14.07-.26.17-.35.32-.09.15-.13.35-.13.6v7.16h-1.08Z"/><path class="cls-2" d="M146.29,50.84c-.24,0-.47-.06-.69-.18-.22-.12-.4-.32-.52-.62v.72h-1.08v-10.67h1.08v2.42c.06-.25.19-.46.41-.61.22-.15.44-.23.68-.24.45,0,.79.12,1.02.38s.39.61.47,1.06c.08.45.12.95.12,1.5v3.31c0,.55-.04,1.05-.11,1.49-.07.44-.22.79-.43,1.04-.21.26-.53.38-.95.38ZM145.93,49.95c.31,0,.52-.16.61-.46.1-.31.15-.8.15-1.5v-3.59c0-.36-.02-.68-.04-.95s-.1-.48-.2-.63c-.1-.15-.26-.22-.49-.22-.18,0-.34.04-.47.12-.13.08-.23.25-.31.51-.07.26-.11.65-.11,1.17v3.62c0,.66.05,1.14.16,1.46.11.32.34.47.69.47Z"/><path class="cls-2" d="M150.67,50.88c-.42,0-.75-.08-1.01-.23-.25-.15-.44-.37-.57-.65s-.21-.61-.25-1-.06-.81-.06-1.28v-3.1c0-.42.02-.81.07-1.17s.14-.67.28-.93c.14-.26.33-.47.58-.62.25-.15.58-.22.98-.22s.74.07.97.22c.24.15.41.36.53.63.12.27.19.59.22.96.03.37.05.77.05,1.2v1.61h-2.61v1.8c0,.62.04,1.09.13,1.4.08.31.31.47.67.47.24,0,.41-.07.51-.22.1-.15.16-.36.19-.63s.04-.6.04-.98v-.7h1.05v.34c0,.46-.01.88-.04,1.26-.03.38-.1.71-.21.99-.11.28-.29.49-.53.64-.24.15-.58.22-1.01.22ZM149.87,45.5h1.53v-1.14c0-.38-.01-.71-.03-.97-.02-.26-.08-.46-.18-.6-.1-.14-.26-.2-.49-.2-.25,0-.43.08-.55.23-.12.15-.2.36-.23.63s-.05.59-.05.95v1.1Z"/><path class="cls-2" d="M153.87,50.77v-7.83h-.8v-.8h.8v-.43c0-.52.1-.93.31-1.21.21-.28.55-.42,1.03-.42.22,0,.42.02.58.05.17.04.25.06.27.06v.8c-.17-.03-.32-.04-.45-.04-.3,0-.48.06-.55.19-.07.12-.11.29-.11.49v.52h1.11v.8h-1.11v7.83h-1.08Z"/><path class="cls-2" d="M158.45,50.88c-.42,0-.75-.08-1.01-.22-.25-.15-.44-.36-.58-.64-.13-.28-.22-.61-.26-.99-.04-.38-.06-.81-.06-1.27v-3.11c0-.56.05-1.07.14-1.52s.27-.8.55-1.06c.27-.26.68-.39,1.22-.39.41,0,.73.07.98.22.25.15.44.36.57.63.13.27.22.58.26.94s.07.75.07,1.17v3.11c0,.46-.02.88-.06,1.26-.04.38-.12.71-.24.99-.12.28-.31.5-.56.65-.25.15-.59.23-1.01.23ZM158.45,49.96c.23,0,.4-.08.52-.24s.19-.38.22-.66c.04-.28.06-.61.06-.99v-3.66c0-.36-.02-.68-.06-.95-.04-.27-.11-.48-.22-.64-.11-.15-.28-.23-.52-.23s-.42.08-.54.23c-.12.15-.19.37-.23.64-.04.27-.05.59-.05.95v3.66c0,.38.02.71.05.99.04.28.11.5.23.66.12.16.3.24.54.24Z"/><path class="cls-2" d="M161.5,50.77v-8.98h1.08v1c.1-.35.29-.62.54-.81.26-.2.59-.29.99-.29,0,0,.01.05.02.14,0,.09,0,.2,0,.32v.46c-.19,0-.38.02-.57.07s-.36.13-.52.25c-.16.12-.32.28-.46.49v7.37h-1.08Z"/><path class="cls-2" d="M166.47,50.88c-.42,0-.75-.08-1.01-.23-.25-.15-.44-.37-.57-.65s-.21-.61-.25-1-.06-.81-.06-1.28v-3.1c0-.42.02-.81.07-1.17s.14-.67.28-.93c.14-.26.33-.47.58-.62.25-.15.58-.22.98-.22s.74.07.97.22c.24.15.41.36.53.63.12.27.19.59.22.96.03.37.05.77.05,1.2v1.61h-2.61v1.8c0,.62.04,1.09.12,1.4.08.31.31.47.67.47.24,0,.41-.07.51-.22.1-.15.16-.36.19-.63.02-.27.04-.6.04-.98v-.7h1.05v.34c0,.46-.01.88-.04,1.26-.03.38-.1.71-.21.99-.11.28-.29.49-.53.64-.24.15-.58.22-1.01.22ZM165.67,45.5h1.53v-1.14c0-.38-.01-.71-.03-.97s-.08-.46-.18-.6-.26-.2-.49-.2c-.25,0-.43.08-.55.23-.12.15-.2.36-.23.63s-.05.59-.05.95v1.1Z"/><path class="cls-2" d="M171.43,50.77v-10.67h1.08v2.61c.08-.27.25-.51.51-.72.26-.21.57-.31.93-.31.42,0,.75.15,1.01.46s.38.78.38,1.43v7.21h-1.08v-7.12c0-.4-.07-.66-.21-.81-.14-.14-.33-.21-.56-.21-.16,0-.32.04-.47.11-.15.07-.27.19-.36.35-.09.16-.14.39-.14.67v7.01h-1.08Z"/><path class="cls-2" d="M176.63,40.96v-1.01h1.08v1.01h-1.08ZM176.63,50.77v-8.98h1.08v8.98h-1.08Z"/><path class="cls-2" d="M179.06,50.77v-8.98h1.08v.92c.08-.27.24-.51.48-.72.25-.21.55-.31.9-.31.29,0,.54.07.76.22.22.15.38.38.48.69.15-.27.35-.49.62-.66s.57-.25.9-.25c.43,0,.77.16,1.02.47.25.31.38.8.38,1.45v7.18h-1.08v-7.22c0-.35-.07-.59-.21-.72s-.32-.2-.55-.2c-.34,0-.57.07-.72.2-.14.14-.21.39-.21.75v7.18h-1.08v-7.23c0-.34-.07-.58-.21-.71s-.32-.2-.55-.2c-.3,0-.54.09-.69.27-.16.18-.24.44-.24.77v7.1h-1.08Z"/><path class="cls-2" d="M189.4,50.77v-7.83h-.8v-.8h.8v-.43c0-.52.1-.93.31-1.21.21-.28.55-.42,1.03-.42.22,0,.42.02.58.05s.25.06.27.06v.8c-.17-.03-.32-.04-.45-.04-.3,0-.48.06-.55.19-.07.12-.11.29-.11.49v.52h1.11v.8h-1.11v7.83h-1.08Z"/><path class="cls-2" d="M193.97,50.88c-.42,0-.75-.08-1.01-.22-.25-.15-.44-.36-.58-.64-.13-.28-.22-.61-.26-.99-.04-.38-.06-.81-.06-1.27v-3.11c0-.56.05-1.07.14-1.52s.27-.8.55-1.06c.27-.26.68-.39,1.22-.39.41,0,.73.07.98.22.25.15.44.36.57.63.13.27.22.58.26.94s.07.75.07,1.17v3.11c0,.46-.02.88-.06,1.26-.04.38-.12.71-.24.99s-.31.5-.56.65c-.25.15-.59.23-1.01.23ZM193.97,49.96c.23,0,.4-.08.51-.24.11-.16.19-.38.22-.66.04-.28.06-.61.06-.99v-3.66c0-.36-.02-.68-.06-.95-.04-.27-.11-.48-.22-.64-.11-.15-.28-.23-.51-.23-.24,0-.42.08-.54.23-.12.15-.19.37-.23.64-.04.27-.05.59-.05.95v3.66c0,.38.02.71.05.99.04.28.11.5.23.66s.3.24.54.24Z"/><path class="cls-2" d="M197.03,50.77v-8.98h1.08v1c.1-.35.29-.62.54-.81.26-.2.59-.29.99-.29,0,0,.01.05.02.14,0,.09,0,.2,0,.32v.46c-.19,0-.38.02-.57.07s-.36.13-.52.25c-.16.12-.32.28-.46.49v7.37h-1.08Z"/><path class="cls-2" d="M2.34,65.02c-.38,0-.67-.04-.87-.13s-.32-.23-.39-.43c-.07-.2-.1-.47-.1-.8v-6.81H.14v-.81h.85v-1.6h1.08v1.6h1.01v.81h-1.01v6.77c0,.16.02.27.06.35.04.08.13.13.27.15.14.02.37.04.68.04v.88h-.74Z"/><path class="cls-2" d="M3.82,64.97v-10.67h1.08v2.61c.08-.27.25-.51.52-.72.26-.21.57-.31.93-.31.42,0,.76.15,1.01.46.25.31.38.78.38,1.43v7.21h-1.08v-7.12c0-.4-.07-.66-.22-.81-.14-.14-.33-.21-.56-.21-.16,0-.32.04-.47.11-.15.07-.27.19-.36.35-.09.16-.14.39-.14.67v7.01h-1.08Z"/><path class="cls-2" d="M10.72,65.08c-.42,0-.75-.08-1.01-.23-.25-.15-.44-.37-.57-.65s-.21-.61-.25-1-.06-.81-.06-1.28v-3.1c0-.42.02-.81.07-1.17s.14-.67.28-.93c.14-.26.33-.47.58-.62.25-.15.58-.22.98-.22s.74.07.97.22c.24.15.41.36.53.63.12.27.19.59.22.96.03.37.05.77.05,1.2v1.61h-2.61v1.8c0,.62.04,1.09.13,1.4.08.31.31.47.67.47.24,0,.41-.07.51-.22.1-.15.16-.36.19-.63s.04-.6.04-.98v-.7h1.05v.34c0,.46-.01.88-.04,1.26-.03.38-.1.71-.21.99-.11.28-.29.49-.53.64-.24.15-.58.22-1.01.22ZM9.93,59.7h1.53v-1.14c0-.38-.01-.71-.03-.97-.02-.26-.08-.46-.18-.6-.1-.14-.26-.2-.49-.2-.25,0-.43.08-.55.23-.12.15-.2.36-.23.63s-.05.59-.05.95v1.1Z"/><path class="cls-2" d="M13.57,64.97v-8.98h1.08v.92c.08-.27.24-.51.48-.72.25-.21.55-.31.9-.31.29,0,.54.07.76.22.22.15.38.38.48.69.15-.27.35-.49.62-.66s.57-.25.9-.25c.43,0,.77.16,1.02.47s.37.8.37,1.45v7.18h-1.08v-7.22c0-.35-.07-.59-.21-.72-.14-.13-.32-.2-.55-.2-.34,0-.57.07-.72.2-.14.14-.21.39-.21.75v7.18h-1.08v-7.23c0-.34-.07-.58-.21-.71s-.32-.2-.55-.2c-.3,0-.54.09-.69.27s-.24.44-.24.77v7.1h-1.08Z"/><path class="cls-2" d="M26.01,65.02c-.38,0-.67-.04-.87-.13s-.32-.23-.39-.43c-.07-.2-.1-.47-.1-.8v-6.81h-.85v-.81h.85v-1.6h1.08v1.6h1.01v.81h-1.01v6.77c0,.16.02.27.06.35.04.08.13.13.27.15.14.02.37.04.68.04v.88h-.74Z"/><path class="cls-2" d="M27.48,64.97v-10.67h1.08v2.61c.08-.27.25-.51.52-.72.26-.21.57-.31.93-.31.42,0,.76.15,1.01.46.25.31.38.78.38,1.43v7.21h-1.08v-7.12c0-.4-.07-.66-.22-.81-.14-.14-.33-.21-.56-.21-.16,0-.32.04-.47.11-.15.07-.27.19-.36.35-.09.16-.14.39-.14.67v7.01h-1.08Z"/><path class="cls-2" d="M33.96,65.04c-.51,0-.89-.21-1.13-.62s-.36-.99-.37-1.74v-1c0-.36.07-.66.2-.91.14-.25.33-.45.57-.63s.53-.33.86-.47c.33-.14.68-.29,1.07-.45v-.66c0-.42-.01-.75-.04-1.02s-.09-.45-.19-.58c-.1-.12-.27-.19-.5-.19s-.4.06-.51.18c-.11.12-.18.32-.22.58-.03.27-.05.61-.05,1.04v.27h-1.08v-.25c0-.38.02-.73.06-1.06.04-.33.12-.62.24-.87.12-.25.31-.45.56-.6.25-.15.59-.22,1.01-.22s.74.07.98.2c.24.13.42.33.54.6.12.26.19.59.23.97.04.38.05.83.05,1.33v6h-1.08v-.73c-.03.1-.1.21-.19.34-.1.12-.23.23-.4.33-.17.09-.37.14-.61.14ZM34.23,64.16c.23,0,.43-.07.6-.2.17-.14.28-.27.34-.4v-3.56c-.34.15-.62.28-.83.39-.21.11-.37.23-.49.36s-.19.27-.23.45-.06.39-.06.66v.78c0,.55.04.94.13,1.18.09.24.27.35.54.35Z"/><path class="cls-2" d="M39,65.02c-.38,0-.67-.04-.87-.13s-.32-.23-.39-.43c-.07-.2-.1-.47-.1-.8v-6.81h-.85v-.81h.85v-1.6h1.08v1.6h1.01v.81h-1.01v6.77c0,.16.02.27.06.35.04.08.13.13.27.15.14.02.37.04.68.04v.88h-.74Z"/><path class="cls-2" d="M43.79,64.97v-7.83h-.8v-.8h.8v-.43c0-.52.1-.93.31-1.21.21-.28.55-.42,1.03-.42.22,0,.42.02.58.05.17.04.25.06.27.06v.8c-.17-.03-.32-.04-.45-.04-.3,0-.48.06-.55.19-.07.12-.11.29-.11.49v.52h1.11v.8h-1.11v7.83h-1.08Z"/><path class="cls-2" d="M48.33,65.08c-.42,0-.75-.08-1.01-.23-.25-.15-.44-.37-.57-.65s-.21-.61-.25-1-.06-.81-.06-1.28v-3.1c0-.42.02-.81.07-1.17s.14-.67.28-.93c.14-.26.33-.47.58-.62.25-.15.58-.22.98-.22s.74.07.97.22c.24.15.41.36.53.63.12.27.19.59.22.96.03.37.05.77.05,1.2v1.61h-2.61v1.8c0,.62.04,1.09.13,1.4.08.31.31.47.67.47.24,0,.41-.07.51-.22.1-.15.16-.36.19-.63s.04-.6.04-.98v-.7h1.05v.34c0,.46-.01.88-.04,1.26-.03.38-.1.71-.21.99-.11.28-.29.49-.53.64-.24.15-.58.22-1.01.22ZM47.54,59.7h1.53v-1.14c0-.38-.01-.71-.03-.97-.02-.26-.08-.46-.18-.6-.1-.14-.26-.2-.49-.2-.25,0-.43.08-.55.23-.12.15-.2.36-.23.63s-.05.59-.05.95v1.1Z"/><path class="cls-2" d="M52.48,65.04c-.51,0-.89-.21-1.13-.62s-.36-.99-.37-1.74v-1c0-.36.07-.66.2-.91.14-.25.33-.45.57-.63s.53-.33.86-.47c.33-.14.68-.29,1.07-.45v-.66c0-.42-.01-.75-.04-1.02s-.09-.45-.19-.58c-.1-.12-.27-.19-.5-.19s-.4.06-.51.18c-.11.12-.18.32-.22.58-.03.27-.05.61-.05,1.04v.27h-1.08v-.25c0-.38.02-.73.06-1.06.04-.33.12-.62.24-.87.12-.25.31-.45.56-.6.25-.15.59-.22,1.01-.22s.74.07.98.2c.24.13.42.33.54.6.12.26.19.59.23.97.04.38.05.83.05,1.33v6h-1.08v-.73c-.03.1-.1.21-.19.34-.1.12-.23.23-.4.33-.17.09-.37.14-.61.14ZM52.75,64.16c.23,0,.43-.07.6-.2.17-.14.28-.27.34-.4v-3.56c-.34.15-.62.28-.83.39-.21.11-.37.23-.49.36s-.19.27-.23.45-.06.39-.06.66v.78c0,.55.04.94.13,1.18.09.24.27.35.54.35Z"/><path class="cls-2" d="M55.95,64.97v-8.98h1.08v1c.1-.35.28-.62.54-.81.26-.2.59-.29.99-.29,0,0,.01.05.02.14,0,.09,0,.2,0,.32v.46c-.19,0-.38.02-.57.07-.19.05-.36.13-.52.25-.16.12-.32.28-.46.49v7.37h-1.08Z"/><path class="cls-2" d="M60.92,65.08c-.42,0-.75-.08-1.01-.23-.25-.15-.44-.37-.57-.65s-.21-.61-.25-1-.06-.81-.06-1.28v-3.1c0-.42.02-.81.07-1.17s.14-.67.28-.93c.14-.26.33-.47.58-.62.25-.15.58-.22.98-.22s.74.07.97.22c.24.15.41.36.53.63.12.27.19.59.22.96.03.37.05.77.05,1.2v1.61h-2.61v1.8c0,.62.04,1.09.13,1.4.08.31.31.47.67.47.24,0,.41-.07.51-.22.1-.15.16-.36.19-.63s.04-.6.04-.98v-.7h1.05v.34c0,.46-.01.88-.04,1.26-.03.38-.1.71-.21.99-.11.28-.29.49-.53.64-.24.15-.58.22-1.01.22ZM60.12,59.7h1.53v-1.14c0-.38-.01-.71-.03-.97-.02-.26-.08-.46-.18-.6-.1-.14-.26-.2-.49-.2-.25,0-.43.08-.55.23-.12.15-.2.36-.23.63s-.05.59-.05.95v1.1Z"/><path class="cls-2" d="M65.1,65.04c-.43,0-.75-.13-.96-.39-.21-.26-.35-.61-.42-1.05s-.1-.95-.1-1.51v-3.29c0-.55.04-1.05.13-1.49.09-.44.26-.79.5-1.05.25-.25.6-.38,1.05-.38.22,0,.43.07.6.21.18.14.31.31.4.51v-2.3h1.08v10.67h-1.08v-.72c-.12.29-.29.5-.51.62s-.46.18-.7.18ZM65.45,64.15c.19,0,.35-.04.48-.13.13-.09.23-.26.29-.52.07-.26.1-.66.1-1.18v-3.61c0-.65-.05-1.13-.15-1.44-.1-.31-.33-.47-.68-.47-.32,0-.53.16-.63.46-.1.31-.16.8-.16,1.48v3.59c0,.36.02.68.05.95.03.27.1.48.21.63.11.15.27.22.49.22Z"/><path class="cls-2" d="M73.23,65.02c-.38,0-.67-.04-.87-.13s-.32-.23-.39-.43c-.07-.2-.1-.47-.1-.8v-6.81h-.85v-.81h.85v-1.6h1.08v1.6h1.01v.81h-1.01v6.77c0,.16.02.27.06.35.04.08.13.13.27.15.14.02.37.04.68.04v.88h-.74Z"/><path class="cls-2" d="M74.7,64.97v-10.67h1.08v2.61c.08-.27.25-.51.52-.72.26-.21.57-.31.93-.31.42,0,.76.15,1.01.46.25.31.38.78.38,1.43v7.21h-1.08v-7.12c0-.4-.07-.66-.22-.81-.14-.14-.33-.21-.56-.21-.16,0-.32.04-.47.11-.15.07-.27.19-.36.35-.09.16-.14.39-.14.67v7.01h-1.08Z"/><path class="cls-2" d="M81.61,65.08c-.42,0-.75-.08-1.01-.23-.25-.15-.44-.37-.57-.65s-.21-.61-.25-1-.06-.81-.06-1.28v-3.1c0-.42.02-.81.07-1.17s.14-.67.28-.93c.14-.26.33-.47.58-.62.25-.15.58-.22.98-.22s.74.07.97.22c.24.15.41.36.53.63.12.27.19.59.22.96.03.37.05.77.05,1.2v1.61h-2.61v1.8c0,.62.04,1.09.13,1.4.08.31.31.47.67.47.24,0,.41-.07.51-.22.1-.15.16-.36.19-.63s.04-.6.04-.98v-.7h1.05v.34c0,.46-.01.88-.04,1.26-.03.38-.1.71-.21.99-.11.28-.29.49-.53.64-.24.15-.58.22-1.01.22ZM80.81,59.7h1.53v-1.14c0-.38-.01-.71-.03-.97-.02-.26-.08-.46-.18-.6-.1-.14-.26-.2-.49-.2-.25,0-.43.08-.55.23-.12.15-.2.36-.23.63s-.05.59-.05.95v1.1Z"/><path class="cls-2" d="M87.44,64.97v-10.54h1.08v9.66h1.91v.88h-2.99Z"/><path class="cls-2" d="M92.71,65.08c-.42,0-.75-.08-1.01-.22-.25-.15-.44-.36-.58-.64-.13-.28-.22-.61-.26-.99-.04-.38-.06-.81-.06-1.27v-3.11c0-.56.05-1.07.14-1.52s.27-.8.55-1.06c.27-.26.68-.39,1.22-.39.41,0,.73.07.98.22.25.15.44.36.57.63.13.27.22.58.26.94s.07.75.07,1.17v3.11c0,.46-.02.88-.06,1.26-.04.38-.12.71-.24.99-.12.28-.31.5-.56.65-.25.15-.59.23-1.01.23ZM92.71,64.16c.23,0,.4-.08.52-.24s.19-.38.22-.66c.04-.28.06-.61.06-.99v-3.66c0-.36-.02-.68-.06-.95-.04-.27-.11-.48-.22-.64-.11-.15-.28-.23-.52-.23s-.42.08-.54.23c-.12.15-.19.37-.23.64-.04.27-.05.59-.05.95v3.66c0,.38.02.71.05.99.04.28.11.5.23.66.12.16.3.24.54.24Z"/><path class="cls-2" d="M95.77,64.97v-8.98h1.08v1c.1-.35.28-.62.54-.81.26-.2.59-.29.99-.29,0,0,.01.05.02.14,0,.09,0,.2,0,.32v.46c-.19,0-.38.02-.57.07-.19.05-.36.13-.52.25-.16.12-.32.28-.46.49v7.37h-1.08Z"/><path class="cls-2" d="M100.34,65.04c-.43,0-.75-.13-.96-.39-.21-.26-.35-.61-.42-1.05s-.1-.95-.1-1.51v-3.29c0-.55.04-1.05.13-1.49.09-.44.26-.79.5-1.05.25-.25.6-.38,1.05-.38.22,0,.43.07.6.21.18.14.31.31.4.51v-2.3h1.08v10.67h-1.08v-.72c-.12.29-.29.5-.51.62s-.46.18-.7.18ZM100.69,64.15c.19,0,.35-.04.48-.13.13-.09.23-.26.29-.52.07-.26.1-.66.1-1.18v-3.61c0-.65-.05-1.13-.15-1.44-.1-.31-.33-.47-.68-.47-.32,0-.53.16-.63.46-.1.31-.16.8-.16,1.48v3.59c0,.36.02.68.05.95.03.27.1.48.21.63.11.15.27.22.49.22Z"/><path class="cls-2" d="M104.01,67.05l.5-2.08h-.72v-1.24h1.39v1.19l-.62,2.13h-.56Z"/><path class="cls-2" d="M110.4,65.04c-.51,0-.89-.21-1.13-.62s-.36-.99-.37-1.74v-1c0-.36.07-.66.2-.91.14-.25.33-.45.57-.63s.53-.33.86-.47c.33-.14.68-.29,1.07-.45v-.66c0-.42-.01-.75-.04-1.02s-.09-.45-.19-.58c-.1-.12-.27-.19-.5-.19s-.4.06-.51.18c-.11.12-.18.32-.22.58-.03.27-.05.61-.05,1.04v.27h-1.08v-.25c0-.38.02-.73.06-1.06.04-.33.12-.62.24-.87.12-.25.31-.45.56-.6.25-.15.59-.22,1.01-.22s.74.07.98.2c.24.13.42.33.54.6.12.26.19.59.23.97.04.38.05.83.05,1.33v6h-1.08v-.73c-.03.1-.1.21-.19.34-.1.12-.23.23-.4.33-.17.09-.37.14-.61.14ZM110.66,64.16c.23,0,.43-.07.6-.2.17-.14.28-.27.34-.4v-3.56c-.34.15-.62.28-.83.39-.21.11-.37.23-.49.36s-.19.27-.23.45-.06.39-.06.66v.78c0,.55.04.94.13,1.18.09.24.27.35.54.35Z"/><path class="cls-2" d="M113.85,64.97v-8.98h1.08v.92c.08-.27.25-.51.52-.72.26-.21.58-.31.93-.31.42,0,.75.15,1.01.46.25.31.38.78.38,1.43v7.21h-1.08v-7.23c0-.34-.08-.59-.23-.73s-.35-.22-.58-.22c-.16,0-.32.03-.46.1-.14.07-.26.17-.35.32-.09.15-.13.35-.13.6v7.16h-1.08Z"/><path class="cls-2" d="M120.36,65.04c-.43,0-.75-.13-.96-.39-.21-.26-.35-.61-.42-1.05s-.1-.95-.1-1.51v-3.29c0-.55.04-1.05.13-1.49.09-.44.26-.79.5-1.05.25-.25.6-.38,1.05-.38.22,0,.43.07.6.21.18.14.31.31.4.51v-2.3h1.08v10.67h-1.08v-.72c-.12.29-.29.5-.51.62s-.46.18-.7.18ZM120.72,64.15c.19,0,.35-.04.48-.13.13-.09.23-.26.29-.52.07-.26.1-.66.1-1.18v-3.61c0-.65-.05-1.13-.15-1.44-.1-.31-.33-.47-.68-.47-.32,0-.53.16-.63.46-.1.31-.16.8-.16,1.48v3.59c0,.36.02.68.05.95.03.27.1.48.21.63.11.15.27.22.49.22Z"/><path class="cls-2" d="M128.49,65.02c-.38,0-.67-.04-.87-.13s-.32-.23-.39-.43c-.07-.2-.1-.47-.1-.8v-6.81h-.85v-.81h.85v-1.6h1.08v1.6h1.01v.81h-1.01v6.77c0,.16.02.27.06.35.04.08.13.13.27.15.14.02.37.04.68.04v.88h-.74Z"/><path class="cls-2" d="M129.97,64.97v-10.67h1.08v2.61c.08-.27.25-.51.52-.72.26-.21.57-.31.93-.31.42,0,.76.15,1.01.46.25.31.38.78.38,1.43v7.21h-1.08v-7.12c0-.4-.07-.66-.22-.81-.14-.14-.33-.21-.56-.21-.16,0-.32.04-.47.11-.15.07-.27.19-.36.35-.09.16-.14.39-.14.67v7.01h-1.08Z"/><path class="cls-2" d="M136.45,65.04c-.51,0-.89-.21-1.13-.62s-.36-.99-.37-1.74v-1c0-.36.07-.66.2-.91.14-.25.33-.45.57-.63s.53-.33.86-.47c.33-.14.68-.29,1.07-.45v-.66c0-.42-.01-.75-.04-1.02s-.09-.45-.19-.58c-.1-.12-.27-.19-.5-.19s-.4.06-.51.18c-.11.12-.18.32-.22.58-.03.27-.05.61-.05,1.04v.27h-1.08v-.25c0-.38.02-.73.06-1.06.04-.33.12-.62.24-.87.12-.25.31-.45.56-.6.25-.15.59-.22,1.01-.22s.74.07.98.2c.24.13.42.33.54.6.12.26.19.59.23.97.04.38.05.83.05,1.33v6h-1.08v-.73c-.03.1-.1.21-.19.34-.1.12-.23.23-.4.33-.17.09-.37.14-.61.14ZM136.71,64.16c.23,0,.43-.07.6-.2.17-.14.28-.27.34-.4v-3.56c-.34.15-.62.28-.83.39-.21.11-.37.23-.49.36s-.19.27-.23.45-.06.39-.06.66v.78c0,.55.04.94.13,1.18.09.24.27.35.54.35Z"/><path class="cls-2" d="M141.48,65.02c-.38,0-.67-.04-.87-.13s-.32-.23-.39-.43c-.07-.2-.1-.47-.1-.8v-6.81h-.85v-.81h.85v-1.6h1.08v1.6h1.01v.81h-1.01v6.77c0,.16.02.27.06.35.04.08.13.13.27.15.14.02.37.04.68.04v.88h-.74Z"/><path class="cls-2" d="M147.5,65.02c-.38,0-.67-.04-.87-.13s-.32-.23-.39-.43c-.07-.2-.1-.47-.1-.8v-6.81h-.85v-.81h.85v-1.6h1.08v1.6h1.01v.81h-1.01v6.77c0,.16.02.27.06.35.04.08.13.13.27.15.14.02.37.04.68.04v.88h-.74Z"/><path class="cls-2" d="M148.97,64.97v-10.67h1.08v2.61c.08-.27.25-.51.52-.72.26-.21.57-.31.93-.31.42,0,.76.15,1.01.46.25.31.38.78.38,1.43v7.21h-1.08v-7.12c0-.4-.07-.66-.22-.81-.14-.14-.33-.21-.56-.21-.16,0-.32.04-.47.11-.15.07-.27.19-.36.35-.09.16-.14.39-.14.67v7.01h-1.08Z"/><path class="cls-2" d="M155.91,65.08c-.42,0-.75-.08-1.01-.22-.25-.15-.44-.36-.58-.64-.13-.28-.22-.61-.26-.99-.04-.38-.06-.81-.06-1.27v-3.11c0-.56.05-1.07.14-1.52s.27-.8.55-1.06c.27-.26.68-.39,1.22-.39.41,0,.73.07.98.22.25.15.44.36.57.63.13.27.22.58.26.94s.07.75.07,1.17v3.11c0,.46-.02.88-.06,1.26-.04.38-.12.71-.24.99-.12.28-.31.5-.56.65-.25.15-.59.23-1.01.23ZM155.91,64.16c.23,0,.4-.08.52-.24s.19-.38.22-.66c.04-.28.06-.61.06-.99v-3.66c0-.36-.02-.68-.06-.95-.04-.27-.11-.48-.22-.64-.11-.15-.28-.23-.52-.23s-.42.08-.54.23c-.12.15-.19.37-.23.64-.04.27-.05.59-.05.95v3.66c0,.38.02.71.05.99.04.28.11.5.23.66.12.16.3.24.54.24Z"/><path class="cls-2" d="M160.36,65.09c-.24,0-.47-.06-.69-.18s-.41-.32-.56-.6c-.15-.28-.22-.66-.22-1.14v-7.19h1.08v7.09c0,.35.07.61.21.79s.34.26.61.26c.3,0,.53-.1.69-.3.16-.2.24-.46.24-.79v-7.05s1.08,0,1.08,0v8.98h-1.08v-.91c-.08.27-.24.51-.47.72s-.53.31-.89.31Z"/><path class="cls-2" d="M165.8,66.35c-.38.02-.72-.03-1.05-.13-.32-.1-.59-.24-.81-.41l.39-.77c.16.12.36.22.6.31.23.09.51.14.84.13.27,0,.48-.11.63-.31.15-.2.23-.47.23-.81v-.92c-.12.3-.28.49-.48.59-.2.1-.42.14-.67.14-.42,0-.74-.13-.96-.38s-.38-.6-.46-1.04-.13-.93-.13-1.49v-2.44c0-.56.05-1.06.16-1.51s.28-.8.53-1.06c.25-.26.58-.38.99-.38.23,0,.44.06.62.17.18.11.31.29.4.54v-.6h1.08v8.26c0,.21-.03.44-.08.68-.05.24-.15.46-.29.67-.14.21-.33.38-.58.52-.25.14-.57.21-.97.23ZM165.91,63.28c.17,0,.31-.05.41-.15.11-.1.19-.29.24-.58.05-.28.08-.69.08-1.23v-2.7c0-.61-.05-1.07-.15-1.37-.1-.3-.31-.46-.65-.46-.24,0-.42.08-.54.23-.12.15-.19.37-.23.64-.03.27-.05.59-.05.95v2.72c0,.66.06,1.15.18,1.47.12.32.35.48.71.48Z"/><path class="cls-2" d="M168.98,64.97v-10.67h1.08v2.61c.08-.27.25-.51.52-.72.26-.21.57-.31.93-.31.42,0,.76.15,1.01.46.25.31.38.78.38,1.43v7.21h-1.08v-7.12c0-.4-.07-.66-.22-.81s-.33-.21-.56-.21c-.16,0-.32.04-.47.11-.15.07-.27.19-.36.35-.09.16-.14.39-.14.67v7.01h-1.08Z"/><path class="cls-2" d="M175.75,65.02c-.38,0-.67-.04-.87-.13-.19-.09-.32-.23-.39-.43-.07-.2-.1-.47-.1-.8v-6.81h-.85v-.81h.85v-1.6h1.08v1.6h1.01v.81h-1.01v6.77c0,.16.02.27.06.35.04.08.13.13.27.15.14.02.37.04.68.04v.88h-.74Z"/><path class="cls-2" d="M181.59,65.09c-.24,0-.47-.06-.69-.18s-.41-.32-.56-.6c-.15-.28-.22-.66-.22-1.14v-7.19h1.08v7.09c0,.35.07.61.21.79s.34.26.61.26c.3,0,.53-.1.69-.3.16-.2.24-.46.24-.79v-7.05s1.08,0,1.08,0v8.98h-1.08v-.91c-.08.27-.24.51-.47.72-.24.21-.53.31-.89.31Z"/><path class="cls-2" d="M185.34,66.59v-10.6h1.08v.72c.12-.29.3-.5.52-.62.23-.12.46-.18.7-.18.42,0,.74.13.95.38s.35.6.42,1.04c.07.44.1.94.1,1.51v3.23c0,.56-.04,1.07-.13,1.52s-.25.81-.49,1.08-.6.4-1.07.4c-.22,0-.42-.07-.6-.22s-.32-.32-.4-.51v2.24h-1.08ZM187.28,64.15c.31,0,.51-.16.61-.46.1-.31.15-.8.15-1.49v-3.6c0-.36-.01-.67-.04-.94s-.1-.48-.2-.63c-.1-.15-.27-.22-.49-.22-.18,0-.34.04-.47.12s-.23.25-.31.51c-.07.26-.11.65-.11,1.17v3.64c0,.65.05,1.13.16,1.44.11.31.34.47.7.47Z"/><path class="cls-2" d="M192.05,65.08c-.42,0-.75-.08-1.01-.22-.25-.15-.44-.36-.58-.64-.13-.28-.22-.61-.26-.99-.04-.38-.06-.81-.06-1.27v-3.11c0-.56.05-1.07.14-1.52s.27-.8.55-1.06c.27-.26.68-.39,1.22-.39.41,0,.73.07.98.22.25.15.44.36.57.63.13.27.22.58.26.94s.07.75.07,1.17v3.11c0,.46-.02.88-.06,1.26-.04.38-.12.71-.24.99s-.31.5-.56.65c-.25.15-.59.23-1.01.23ZM192.05,64.16c.23,0,.4-.08.51-.24.11-.16.19-.38.22-.66.04-.28.06-.61.06-.99v-3.66c0-.36-.02-.68-.06-.95-.04-.27-.11-.48-.22-.64-.11-.15-.28-.23-.51-.23-.24,0-.42.08-.54.23-.12.15-.19.37-.23.64-.04.27-.05.59-.05.95v3.66c0,.38.02.71.05.99.04.28.11.5.23.66s.3.24.54.24Z"/><path class="cls-2" d="M195.09,64.97v-8.98h1.08v.92c.08-.27.25-.51.51-.72.26-.21.58-.31.93-.31.42,0,.75.15,1.01.46.25.31.38.78.38,1.43v7.21h-1.08v-7.23c0-.34-.08-.59-.23-.73-.16-.14-.35-.22-.58-.22-.16,0-.32.03-.46.1-.14.07-.26.17-.35.32-.09.15-.13.35-.13.6v7.16h-1.08Z"/><path class="cls-2" d="M.77,79.17v-10.67h1.08v2.61c.08-.27.25-.51.52-.72.26-.21.57-.31.93-.31.42,0,.76.15,1.01.46.25.31.38.79.38,1.43v7.21h-1.08v-7.12c0-.4-.07-.66-.22-.81-.14-.14-.33-.21-.56-.21-.16,0-.32.04-.47.11-.15.07-.27.19-.36.35-.09.16-.14.38-.14.67v7.01H.77Z"/><path class="cls-2" d="M5.97,69.35v-1.01h1.08v1.01h-1.08ZM5.97,79.17v-8.98h1.08v8.98h-1.08Z"/><path class="cls-2" d="M9.99,79.29c-.63,0-1.11-.2-1.42-.6s-.47-1.06-.47-1.98v-.72h1.06v.65c0,.55.06.97.19,1.27.12.29.32.44.58.44s.47-.09.59-.26c.12-.17.18-.49.18-.94,0-.22-.02-.43-.08-.64-.05-.21-.14-.42-.26-.63-.13-.21-.3-.43-.54-.65l-.65-.61c-.39-.38-.68-.77-.86-1.17s-.28-.84-.28-1.29c0-.7.16-1.22.49-1.56.33-.33.77-.5,1.33-.5.37,0,.69.09.96.26s.47.46.6.87c.14.41.21.96.21,1.67v.48h-1.02v-.66c0-.56-.06-.98-.17-1.25s-.3-.42-.57-.42-.46.1-.58.29-.18.48-.19.87c0,.19.02.37.07.56.05.18.13.37.26.56.12.19.3.39.52.6l.63.61c.42.4.73.82.93,1.25.19.44.29.9.29,1.38,0,.65-.14,1.17-.43,1.55-.29.38-.74.58-1.36.58Z"/><path class="cls-2" d="M14.94,79.17v-8.98h1.08v.92c.08-.27.25-.51.52-.72.26-.21.58-.31.93-.31.42,0,.75.15,1.01.46.25.31.38.79.38,1.43v7.21h-1.08v-7.23c0-.34-.08-.59-.23-.73-.16-.14-.35-.21-.58-.21-.16,0-.32.03-.46.1-.14.07-.26.17-.35.32s-.13.35-.13.6v7.16h-1.08Z"/><path class="cls-2" d="M21.42,79.24c-.51,0-.89-.21-1.13-.62s-.36-.99-.37-1.74v-1c0-.36.07-.66.2-.91.14-.25.33-.45.57-.63.24-.17.53-.33.86-.47.33-.14.68-.29,1.07-.45v-.66c0-.42-.01-.75-.04-1.01s-.09-.45-.19-.58c-.1-.12-.27-.19-.5-.19s-.4.06-.51.18c-.11.12-.18.32-.22.58-.03.27-.05.61-.05,1.04v.27h-1.08v-.25c0-.38.02-.73.06-1.06.04-.33.12-.62.24-.88.12-.25.31-.45.56-.6s.59-.22,1.01-.22.74.07.98.2c.24.13.42.33.54.6.12.26.19.59.23.97.04.38.05.83.05,1.33v6h-1.08v-.73c-.03.1-.1.21-.19.34s-.23.23-.4.33c-.17.09-.37.14-.61.14ZM21.69,78.36c.23,0,.43-.07.6-.2.17-.14.28-.27.34-.4v-3.56c-.34.15-.62.28-.83.39-.21.11-.37.23-.49.36-.11.12-.19.27-.23.45-.04.17-.06.39-.06.66v.78c0,.55.04.94.13,1.18s.27.35.54.35Z"/><path class="cls-2" d="M24.88,79.17v-8.98h1.08v.92c.08-.27.24-.51.48-.72s.55-.31.9-.31c.29,0,.54.07.76.22.22.15.38.38.48.69.15-.27.35-.49.62-.66.27-.17.57-.25.9-.25.43,0,.77.16,1.02.47s.37.79.37,1.45v7.18h-1.08v-7.22c0-.35-.07-.59-.21-.72-.14-.13-.32-.2-.55-.2-.34,0-.57.07-.72.2s-.21.39-.21.75v7.18h-1.08v-7.23c0-.34-.07-.58-.21-.71s-.32-.2-.55-.2c-.3,0-.54.09-.69.27s-.24.44-.24.77v7.1h-1.08Z"/><path class="cls-2" d="M34.49,79.27c-.42,0-.75-.08-1.01-.23-.25-.15-.44-.37-.57-.65s-.21-.61-.25-1c-.04-.38-.06-.81-.06-1.28v-3.1c0-.42.02-.81.07-1.17s.14-.67.28-.93.33-.47.58-.62c.25-.15.58-.22.98-.22s.74.08.97.22c.24.15.41.36.53.63.12.27.19.59.22.96.03.37.05.77.05,1.2v1.61h-2.61v1.8c0,.62.04,1.09.13,1.4.08.31.31.47.67.47.24,0,.41-.08.51-.22.1-.15.16-.36.19-.63s.04-.6.04-.98v-.7h1.05v.34c0,.46-.01.88-.04,1.26s-.1.71-.21.99-.29.49-.53.64-.58.22-1.01.22ZM33.7,73.9h1.53v-1.14c0-.38-.01-.71-.03-.97-.02-.26-.08-.46-.18-.6-.1-.14-.26-.2-.49-.2-.25,0-.43.08-.55.23-.12.15-.2.36-.23.63s-.05.59-.05.95v1.1Z"/><path class="cls-2" d="M37.47,79.17v-1.1h.99v1.1h-.99Z"/><path class="cls-2" d="M42.26,79.17v-9.98h1.89l1.42,7.29,1.33-7.29h1.9v9.98h-1.35v-3.72l.06-3.41-1.34,7.09h-1.21l-1.4-7.09.06,3.41v3.72h-1.34Z"/><path class="cls-2" d="M50.99,79.25c-.58,0-.99-.21-1.21-.63-.23-.42-.34-.99-.35-1.68v-.54c0-.45.06-.82.2-1.11s.32-.51.56-.69.53-.33.87-.46c.34-.13.71-.27,1.12-.43v-.74c0-.29-.01-.52-.03-.69-.02-.17-.07-.3-.15-.38-.08-.08-.2-.12-.37-.12s-.29.04-.37.12-.14.21-.17.37c-.03.17-.05.38-.05.64v.38h-1.49v-.25c0-.39.03-.74.1-1.04.07-.31.18-.57.34-.78.16-.21.38-.38.65-.49.27-.11.62-.17,1.04-.17.37,0,.68.05.94.16.26.1.47.26.63.46s.28.46.36.77.11.67.11,1.08v6.13h-1.51v-.84c-.05.16-.12.31-.23.46-.11.14-.25.26-.41.34s-.35.13-.56.13ZM51.51,78.1c.19,0,.34-.07.45-.2.11-.14.18-.27.21-.41v-2.93c-.23.1-.42.2-.57.29-.16.09-.28.19-.37.29-.09.11-.16.23-.2.37-.04.14-.06.32-.06.53v.95c0,.39.04.67.12.85.08.18.22.26.43.26Z"/><path class="cls-2" d="M54.41,79.17v-10.06h1.5v10.06h-1.5Z"/><path class="cls-2" d="M58.1,79.25c-.58,0-.99-.21-1.21-.63-.23-.42-.34-.99-.35-1.68v-.54c0-.45.06-.82.2-1.11s.32-.51.56-.69.53-.33.87-.46c.34-.13.71-.27,1.12-.43v-.74c0-.29-.01-.52-.03-.69-.02-.17-.07-.3-.15-.38-.08-.08-.2-.12-.37-.12s-.29.04-.37.12-.14.21-.17.37c-.03.17-.05.38-.05.64v.38h-1.49v-.25c0-.39.03-.74.1-1.04.07-.31.18-.57.34-.78.16-.21.38-.38.65-.49.27-.11.62-.17,1.04-.17.37,0,.68.05.94.16.26.1.47.26.63.46s.28.46.36.77.11.67.11,1.08v6.13h-1.51v-.84c-.05.16-.12.31-.23.46-.11.14-.25.26-.41.34s-.35.13-.56.13ZM58.63,78.1c.19,0,.34-.07.45-.2.11-.14.18-.27.21-.41v-2.93c-.23.1-.42.2-.57.29-.16.09-.28.19-.37.29-.09.11-.16.23-.2.37-.04.14-.06.32-.06.53v.95c0,.39.04.67.12.85.08.18.22.26.43.26Z"/><path class="cls-2" d="M63.58,79.27c-.43,0-.79-.07-1.08-.2-.28-.13-.51-.33-.67-.58s-.27-.56-.34-.92c-.06-.36-.1-.77-.1-1.23v-2.76c0-.63.06-1.17.18-1.62s.33-.8.65-1.04c.32-.24.77-.36,1.37-.36.37,0,.68.06.93.17.25.11.46.28.61.49.15.21.27.47.34.77.07.3.1.64.1,1.02v.94h-1.45v-.99c0-.25-.01-.46-.03-.63-.02-.18-.07-.31-.15-.4s-.21-.14-.38-.14-.3.05-.4.14c-.09.09-.16.23-.2.41-.04.18-.05.39-.05.64v3.83c0,.26.02.48.05.66.03.18.09.32.18.42.09.1.22.14.39.14s.3-.05.38-.15c.09-.1.14-.24.17-.42s.04-.39.04-.64v-1.01h1.45v.86c0,.39-.03.74-.1,1.06-.07.32-.18.59-.33.82-.16.23-.36.4-.62.52-.26.12-.57.18-.95.18Z"/><path class="cls-2" d="M66.16,79.17v-10.06h1.5v2.53c.08-.29.23-.54.46-.76s.52-.32.86-.32c.5,0,.87.16,1.12.49s.38.8.38,1.42v6.7h-1.5v-6.55c0-.27-.05-.48-.16-.62-.1-.14-.25-.21-.45-.21-.15,0-.29.04-.39.13s-.19.21-.24.37c-.05.16-.08.34-.08.56v6.32h-1.5Z"/><path class="cls-2" d="M71.25,69.88v-1.3h1.51v1.3h-1.51ZM71.25,79.17v-8.5h1.5v8.5h-1.5Z"/><path class="cls-2" d="M76.87,79.28c-.77,0-1.31-.23-1.61-.69-.3-.46-.45-1.17-.45-2.11v-.65h1.42v.69c0,.34.01.61.04.83.03.22.09.37.19.48.1.1.25.15.45.15s.35-.06.45-.18.17-.31.21-.56c.04-.25.05-.56.05-.93,0-.43-.02-.79-.07-1.06s-.14-.47-.27-.59c-.13-.12-.32-.19-.57-.19h-.43v-1.16h.42c.24,0,.43-.05.56-.16s.23-.28.28-.52c.05-.24.08-.55.08-.93,0-.36-.03-.63-.08-.82-.05-.19-.13-.32-.23-.39-.1-.07-.22-.11-.37-.11-.17,0-.3.04-.4.13-.1.09-.17.23-.21.43-.04.19-.06.45-.06.77v.3h-1.47v-.31c0-.89.16-1.55.47-1.98.31-.43.86-.65,1.63-.65s1.31.22,1.66.66.53,1.1.53,1.97c0,.53-.08.98-.24,1.36-.16.38-.42.64-.78.77.26.12.47.3.62.53.15.23.26.52.32.84.06.33.1.7.1,1.11,0,.97-.17,1.71-.51,2.21s-.92.75-1.74.75Z"/><path class="cls-2" d="M79.73,73.28v-1.53h1.6v1.53h-1.6ZM79.73,77.64v-1.52h1.6v1.52h-1.6Z"/><path class="cls-2" d="M82.87,79.17v-8.1c-.09.11-.21.2-.35.27-.14.07-.29.13-.44.17-.16.04-.31.05-.45.05v-1.13c.2-.03.4-.09.6-.2.2-.1.39-.24.56-.41.17-.17.31-.39.41-.63h1.18v9.98h-1.52Z"/><path class="cls-2" d="M87.38,79.29c-.46,0-.84-.07-1.13-.21-.29-.14-.52-.35-.69-.62s-.27-.59-.34-.98c-.06-.38-.09-.82-.09-1.3v-4.1c0-.76.08-1.36.25-1.8.17-.44.42-.75.75-.93.33-.19.76-.28,1.27-.28.44,0,.81.08,1.09.24.29.16.5.43.64.8.14.37.21.86.22,1.48v.52h-1.42v-.2c0-.37-.01-.67-.03-.89-.02-.22-.08-.38-.16-.48-.08-.1-.22-.14-.41-.14s-.34.05-.43.15c-.1.1-.16.26-.19.49-.03.23-.05.54-.05.93v1.42c.11-.15.26-.27.46-.35s.42-.12.66-.13c.45,0,.81.1,1.07.32.26.22.44.55.54,1s.16.99.16,1.65v.55c0,.62-.06,1.15-.18,1.57-.12.42-.34.75-.65.96-.31.21-.76.32-1.33.32ZM87.38,77.96c.18,0,.32-.04.43-.11.1-.08.17-.21.21-.39s.06-.44.06-.76v-.95c0-.37-.02-.67-.06-.89-.04-.22-.11-.39-.21-.49-.1-.1-.23-.15-.4-.15-.14,0-.27.03-.38.08-.11.05-.19.12-.26.2-.07.08-.11.17-.12.26v1.8c0,.32.02.58.07.79s.12.36.23.46c.11.1.25.15.44.15Z"/></svg>