<?xml version="1.0" encoding="UTF-8"?>
<svg id="Layer_1" xmlns="http://www.w3.org/2000/svg" version="1.1" viewBox="0 0 324 160">
  <!-- Generator: Adobe Illustrator 29.6.1, SVG Export Plug-In . SVG Version: 2.1.1 Build 9)  -->
  <defs>
    <style>
      .st0 {
        fill: #fff;
      }
    </style>
  </defs>
  <path class="st0" d="M56.77,145.33c-10.41,0-18.48-2.86-24.19-8.57-5.72-5.71-8.57-13.78-8.57-24.19v-40.74h-15.96v-19.86h1.7c4.53,0,8.03-1.19,10.53-3.56,2.49-2.38,3.73-5.83,3.73-10.35v-7.13h22.24v21.05h21.22v19.86h-21.22v39.55c0,3.06.54,5.66,1.61,7.81,1.07,2.15,2.77,3.79,5.09,4.92,2.32,1.13,5.29,1.7,8.91,1.7.79,0,1.72-.06,2.8-.17,1.07-.11,2.12-.23,3.14-.34v19.01c-1.59.23-3.4.45-5.43.68-2.04.23-3.9.34-5.6.34Z"/>
  <path class="st0" d="M102.27,146.35c-6.45,0-12.05-1.08-16.81-3.23-4.75-2.15-8.43-5.23-11.03-9.25-2.6-4.02-3.9-8.68-3.9-14.01s1.13-9.65,3.4-13.67c2.26-4.02,5.77-7.38,10.53-10.1,4.75-2.72,10.75-4.64,17.99-5.77l30.22-4.92v16.98l-25.97,4.41c-4.41.79-7.7,2.21-9.85,4.24-2.15,2.04-3.23,4.7-3.23,7.98s1.21,5.69,3.65,7.55c2.43,1.87,5.46,2.8,9.08,2.8,4.64,0,8.74-.99,12.31-2.97,3.56-1.98,6.34-4.72,8.32-8.23,1.98-3.51,2.97-7.36,2.97-11.54v-23.77c0-3.96-1.56-7.27-4.67-9.93-3.11-2.66-7.21-3.99-12.31-3.99-4.75,0-8.97,1.27-12.65,3.82-3.68,2.55-6.37,5.92-8.06,10.1l-18.16-8.83c1.81-4.86,4.67-9.08,8.57-12.65s8.51-6.37,13.84-8.4c5.32-2.04,11.09-3.06,17.32-3.06,7.58,0,14.26,1.39,20.03,4.16,5.77,2.77,10.27,6.62,13.5,11.54,3.23,4.92,4.84,10.67,4.84,17.23v61.45h-21.05v-15.79l4.75-.34c-2.38,3.96-5.21,7.27-8.49,9.93-3.28,2.66-7.02,4.7-11.2,6.11-4.19,1.41-8.83,2.12-13.92,2.12Z"/>
  <path class="st0" d="M162.53,144.31V15.8h22.24v128.51h-22.24Z"/>
  <path class="st0" d="M195.13,144.31V15.8h22.24v128.51h-22.24Z"/>
  <path class="st0" d="M271.52,146.35c-9.51,0-17.83-2.15-24.96-6.45-7.13-4.3-12.68-10.13-16.64-17.48-3.96-7.36-5.94-15.5-5.94-24.45s2.01-17.51,6.03-24.7c4.02-7.19,9.51-12.87,16.47-17.06,6.96-4.19,14.74-6.28,23.34-6.28,7.24,0,13.61,1.19,19.1,3.56,5.49,2.38,10.16,5.66,14.01,9.85,3.85,4.19,6.79,8.97,8.83,14.34,2.04,5.38,3.06,11.18,3.06,17.4,0,1.59-.08,3.23-.25,4.92s-.48,3.17-.93,4.41h-71.3v-16.98h58.74l-10.53,7.98c1.02-5.2.76-9.85-.76-13.92-1.53-4.07-4.02-7.3-7.47-9.68-3.45-2.38-7.61-3.56-12.48-3.56s-8.77,1.16-12.39,3.48c-3.62,2.32-6.37,5.72-8.23,10.19-1.87,4.47-2.58,9.88-2.12,16.21-.45,5.66.31,10.67,2.29,15.02,1.98,4.36,4.92,7.72,8.83,10.1s8.4,3.56,13.5,3.56,9.42-1.07,12.99-3.22c3.56-2.15,6.37-5.04,8.4-8.66l18,8.83c-1.81,4.41-4.64,8.32-8.49,11.71-3.85,3.39-8.4,6.06-13.67,7.98-5.26,1.92-11.06,2.89-17.4,2.89ZM242.15,32.27V13.94h54.66v18.33h-54.66Z"/>
</svg>