<?xml version="1.0" encoding="UTF-8"?><svg id="Capa_2" xmlns="http://www.w3.org/2000/svg" viewBox="0 0 593.5 69.05"><defs><style>.cls-1{fill:#3ee5a1;}</style></defs><path class="cls-1" d="M416.51,13.96c-19.38,7.56-37.85,15.09-56.59,21.91-8.63,3.14-18.07,2.38-26.78.54-4.65-.99-7.91-6.64-7.85-12.04.09-8.5-4.48-6.68-8.84-4.28-13.99,7.71-28.97,13.63-41.97,23.11-2.38,1.74-5.03,2.59-7.73,3.28-15.32,3.96-18.98-1.43-20.72-14.08-1.6-11.61-3.23-12.61-14.26-8.48-19.29,7.23-37.03,17.72-55.98,25.65-12.81,5.36-25.17,6.33-37.87.49-8.02-3.68-11.46-10.3-9.34-20.25,1.28-5.99,1.1-7.2-5.58-5.3-20.14,5.74-37.66,16.61-55.83,26.38-11.61,6.24-23.69,11.79-36.01,16.48-6.68,2.54-14.54,1.84-21.47.24C4.2,66.35.21,62.16.03,55.23c-.32-12.28,2.14-23.76,8.6-34.46-1.61,6.39-3.29,12.76-4.78,19.18-.69,2.99-1.62,6.12-1.36,9.1,1.11,12.65,13.97,17.78,27.56,11.64,22.99-10.39,44.42-23.65,66.52-35.66,10.66-5.79,22.09-9.11,34.03-10.74,4.34-.59,7.48.66,8.13,5.86.42,3.41.08,6.68-.15,10.03-.65,9.44,2.41,12.41,12.19,13.36,11.28,1.1,21.12-2.93,30.63-7.96,15.87-8.39,32.27-15.63,48.72-22.74,4.55-1.97,10.02-2.2,15.11-2.46,6.43-.33,10.62,4.71,11.38,12.75q1.48,15.64,15.5,8.08c14.93-8,29.86-15.99,44.87-23.83,5.15-2.69,11.37-3.86,16.03-.77,4.16,2.77,5.23,8.25,3.61,13.89-1.17,4.06,1.56,5.83,5.68,6.08,7.86.48,14.94-1.45,22.19-4.55,14.79-6.32,29.98-11.7,45.01-17.46C415.71,2.18,421.89-.12,428.77,0c5.83.1,7.58,2.99,5.8,7.91-1.47,4.06-3.86,7.79-5.92,11.63-3.08,5.75-1.18,9.1,5.42,9.88,9.7,1.15,19.25-.68,27.99-3.99,14.53-5.5,29.84-6.6,44.75-9.85,15.99-3.48,32.17-6.24,48.37-8.59,12.69-1.84,25.5-1,38.33.57-9.37,6.78-20.17,9.14-30.82,10.63-24.29,3.39-48.39,7.7-72.47,12.29-12.28,2.34-24.04,6.28-36.11,9.11-8.43,1.98-17.68,2.13-26.15-.06-10.76-2.79-13.55-9.83-11.45-25.57Z"/></svg>